<?xml version="1.0" encoding="utf-8"?>
<!-- Generator: Adobe Illustrator 16.0.0, SVG Export Plug-In . SVG Version: 6.00 Build 0)  -->
<!DOCTYPE svg PUBLIC "-//W3C//DTD SVG 1.1//EN" "http://www.w3.org/Graphics/SVG/1.1/DTD/svg11.dtd">
<svg version="1.1" id="Layer_1" xmlns="http://www.w3.org/2000/svg" xmlns:xlink="http://www.w3.org/1999/xlink" x="0px" y="0px"
	 width="595.28px" height="841.89px" viewBox="0 0 595.28 841.89" enable-background="new 0 0 595.28 841.89" xml:space="preserve">
<rect x="239.308" y="483.383" fill="#FFFFFF" width="123.744" height="33.613"/>
<rect x="275.775" y="400.192" fill="#FFF200" stroke="#000000" stroke-width="0.5" width="47.219" height="10.056"/>
<circle fill="#FFF200" stroke="#000000" stroke-width="0.5" cx="299.643" cy="219.879" r="8.378"/>
<path fill="#FFF200" stroke="#000000" stroke-width="0.5" d="M314.907,216.613c-5.319,3.254-10.337,4.291-14.673,4.277v-0.054
	c-4.359,0.032-9.419-0.999-14.782-4.28c0,0,15.464,31.154-0.17,73.525c-15.635,42.371-18.58,43.352-19.486,63.896
	c0,0,16.723,0.114,34.327,0.181v0.056c17.645-0.067,34.44-0.18,34.44-0.18c-0.906-20.545-3.854-21.525-19.486-63.896
	C299.441,247.769,314.907,216.613,314.907,216.613z"/>
<path fill="#BD1D22" stroke="#000000" stroke-width="0.75" d="M115.412,739.783c0,0-58.005-34.738-75.83-93.954
	c0,0-23.867,47.126,23.564,103.018c0,0-23.264-2.418-32.628,33.533c0,0,20.244-8.153,30.514,18.431c0,0,19.334,33.836,51.358,37.461
	s6.147-40.37,6.147-40.37"/>
<path fill="#FFFFFF" stroke="#000000" stroke-width="0.5" d="M269.622,738.579l-2.473-199.774c0,0-53.021-38.972-98.337-10.423
	l-26.887,184.742c0,0,61.666-5.693,125.069,31.636C267.686,742.618,268.562,740.551,269.622,738.579z"/>
<path fill="#FFFFFF" stroke="#000000" stroke-width="0.5" d="M276.249,729.898l-3.662-196.984c0,0-53.021-38.973-98.337-10.423
	l-25.831,184.586c0,0,58.638-7.947,120.818,32.264C271.016,735.828,273.335,732.61,276.249,729.898z"/>
<path fill="#FFFFFF" stroke="#000000" stroke-width="0.5" d="M283.028,725.133l-4.1-199.923c0,0-53.169-36.93-98.486-8.38
	l-25.527,183.453c0,0,57.447-6.376,118.777,32.28C276.234,729.584,279.368,727.063,283.028,725.133z"/>
<path fill="#FFFFFF" stroke="#000000" stroke-width="0.5" d="M300.399,721.167l-8.782-198.449c0,0-56.341-40.328-101.658-11.779
	l-27.793,182.548c0,0,59.371-5.206,120.014,32.105C286.01,723.51,291.662,720.833,300.399,721.167z"/>
<path fill="#FFFFFF" stroke="#000000" stroke-width="0.5" d="M300.561,721.153l-0.333-202.288c0,0-56.341-43.5-101.658-14.95
	l-27.793,180.206c0,0,66.18-4.381,128.917,37.009C299.953,721.13,300.394,721.15,300.561,721.153z"/>
<path fill="#FFFFFF" stroke="#000000" stroke-width="0.5" d="M431.553,529.005c-45.317-28.55-98.338,10.423-98.338,10.423
	l-2.465,199.583c1.057,2.039,1.922,4.179,2.593,6.387c63.416-37.347,125.1-31.65,125.1-31.65L431.553,529.005z"/>
<path fill="#FFFFFF" stroke="#000000" stroke-width="0.5" d="M426.114,523.113c-45.316-28.548-98.337,10.424-98.337,10.424
	l-3.653,196.567c2.97,2.813,5.311,6.166,7.081,9.813c62.151-40.157,120.74-32.217,120.74-32.217L426.114,523.113z"/>
<path fill="#FFFFFF" stroke="#000000" stroke-width="0.5" d="M419.924,517.453c-45.317-28.549-98.49,8.38-98.49,8.38l-4.086,199.416
	c3.765,2.025,6.939,4.691,9.507,7.825c61.262-38.533,118.598-32.168,118.598-32.168L419.924,517.453z"/>
<path fill="#FFFFFF" stroke="#000000" stroke-width="0.5" d="M410.407,511.562c-45.317-28.549-101.663,11.778-101.663,11.778
	l-7.843,197.753c6.401,0.359,13.962,2.603,17.755,4.908c60.506-37.063,119.545-31.893,119.545-31.893L410.407,511.562z"/>
<path fill="#FFFFFF" stroke="#000000" stroke-width="0.5" d="M401.797,504.537c-48.956-29.483-101.262,14.541-101.262,14.541
	l0.051,202.033c0.299-0.047-0.855,0.131,1.215,0.068c62.95-41.84,127.79-36.436,127.79-36.436L401.797,504.537z"/>
<path fill="#FFF200" stroke="#000000" stroke-width="0.5" d="M301.189,0.521c0,0-8.115,0.004-8.892,15.181l4.532,137.648
	l2.964,17.101l2.983-17.27l7.421-137.932C310.197,15.249,309.658,2.607,301.189,0.521z"/>
<path fill="#FFF200" stroke="#000000" stroke-width="0.5" d="M283.531,168.171l-0.685-4.848c0,0-14.784-57.024-22.054-71.904
	c-3.071-6.288-11.407-15.194-18.429-10.271c-7.022,4.923,1.359,20.393,1.359,20.393l37.157,63.442L283.531,168.171z"/>
<path fill="#FFF200" stroke="#000000" stroke-width="0.5" d="M270.318,179.796l-3.484-6.847l-30.129-46.176
	c0,0-10.337-13.386-19.567-7.903c0,0-6.535,5.672,6.949,21.904l40.028,34.894L270.318,179.796z"/>
<path fill="#FFF200" stroke="#000000" stroke-width="0.5" d="M268.857,200.594l-4.798-4.611l-36.554-29.604
	c0,0-16.01-11.545-24.622-5.29c0,0-5.963,10.402,11.027,19.186l48.79,17.974L268.857,200.594z"/>
<path fill="#FFF200" stroke="#000000" stroke-width="0.5" d="M268.608,212.245l-6.361,1.111c0,0-44.938,10.5-57.401,13.294
	c0,0-11.783,5.891-25.227,19.185c0,0,14.578-1.398,29.986-4.004c0,0,23.79-11.63,54.454-26.209L268.608,212.245z"/>
<path fill="#FFF200" stroke="#000000" stroke-width="0.5" d="M271.88,227.118l-4.724,8.821l-84.741,95.391
	c0,0-6.798,2.04-22.205,2.493c0,0,0.453-5.211,1.359-18.807l100.714-84.515C262.285,230.501,268.757,228.457,271.88,227.118z"/>
<path fill="#FFF200" stroke="#000000" stroke-width="0.5" d="M259.238,260.731l-5.45,5.117c0,0-84.742,108.532-85.874,112.158
	c-1.133,3.625-4.758,11.103-4.532,24.244c0,0,7.023,1.813,19.033-9.516l73.865-125.073L259.238,260.731z"/>
<path fill="#FFF200" stroke="#000000" stroke-width="0.5" d="M283.184,230.836l-7.417,10.995L158.475,502.024
	c0,0-5.136,22.963-0.906,31.421c0,0,13.895-10.877,21.448-22.659l101.849-266.973L283.184,230.836z"/>
<path fill="#FFF200" stroke="#000000" stroke-width="0.5" d="M316.379,168.171l0.686-4.848c0,0,14.782-57.024,22.051-71.904
	c3.072-6.288,11.408-15.194,18.43-10.271c7.022,4.923-1.36,20.393-1.36,20.393l-37.157,63.442L316.379,168.171z"/>
<path fill="#FFF200" stroke="#000000" stroke-width="0.5" d="M329.59,179.796l3.486-6.847l30.127-46.176
	c0,0,10.337-13.386,19.567-7.903c0,0,6.535,5.672-6.948,21.904l-40.027,34.894L329.59,179.796z"/>
<path fill="#FFF200" stroke="#000000" stroke-width="0.5" d="M331.054,200.594l4.797-4.611l36.553-29.604
	c0,0,16.01-11.545,24.625-5.29c0,0,5.961,10.402-11.029,19.186l-48.789,17.974L331.054,200.594z"/>
<path fill="#FFF200" stroke="#000000" stroke-width="0.5" d="M331.301,212.245l6.36,1.111c0,0,44.94,10.5,57.401,13.294
	c0,0,11.782,5.891,25.226,19.185c0,0-14.575-1.398-29.983-4.004c0,0-23.792-11.63-54.456-26.209L331.301,212.245z"/>
<path fill="#FFF200" stroke="#000000" stroke-width="0.5" d="M328.028,227.118l4.725,8.821l84.742,95.391
	c0,0,6.797,2.04,22.203,2.493c0,0-0.454-5.211-1.36-18.807l-100.714-84.515C337.624,230.501,331.151,228.457,328.028,227.118z"/>
<path fill="#FFF200" stroke="#000000" stroke-width="0.5" d="M340.67,260.731l5.45,5.117c0,0,84.742,108.532,85.874,112.158
	c1.134,3.625,4.759,11.103,4.531,24.244c0,0-7.022,1.813-19.03-9.516l-73.866-125.073L340.67,260.731z"/>
<path fill="#FFF200" stroke="#000000" stroke-width="0.5" d="M316.725,230.836l7.418,10.995l117.294,260.193
	c0,0,5.133,22.963,0.906,31.421c0,0-13.897-10.877-21.45-22.659L319.044,243.813L316.725,230.836z"/>
<path fill="#176B36" stroke="#000000" stroke-width="0.75" d="M134.143,353.082c0,0-38.066,14.955-42.145,63.896
	C91.999,416.979,129.611,392.055,134.143,353.082z"/>
<path fill="#176B36" stroke="#000000" stroke-width="0.75" d="M140.487,388.882c0,0-29.456,5.438-47.583,52.114
	C92.905,440.996,132.784,426.042,140.487,388.882z"/>
<path fill="#176B36" stroke="#000000" stroke-width="0.75" d="M83.842,386.616c0,0-32.175,43.957-8.61,88.819
	C75.231,475.436,98.796,444.622,83.842,386.616z"/>
<path fill="#176B36" stroke="#000000" stroke-width="0.75" d="M124.626,436.918c0,0-43.957,14.954-46.223,67.974
	C78.404,504.892,112.844,483.14,124.626,436.918z"/>
<path fill="#176B36" stroke="#000000" stroke-width="0.75" d="M107.859,488.578c0,0-38.519,33.534-31.722,83.836
	C76.138,572.414,114.657,537.973,107.859,488.578z"/>
<path fill="#176B36" stroke="#000000" stroke-width="0.75" d="M54.839,439.637c0,0-25.377,67.521,13.142,115.104
	C67.981,554.74,81.576,495.375,54.839,439.637z"/>
<path fill="#176B36" stroke="#000000" stroke-width="0.75" d="M77.044,623.62c0,0-47.583-29.454-36.706-103.32
	C40.338,520.3,76.138,556.1,77.044,623.62z"/>
<path fill="#176B36" stroke="#000000" stroke-width="0.75" d="M90.186,633.137c0,0-16.314-50.3,16.767-96.07
	C106.953,537.066,121.908,569.694,90.186,633.137z"/>
<path fill="#176B36" stroke="#000000" stroke-width="0.75" d="M40.338,599.15c0,0-2.719,55.738,68.428,93.805
	C108.766,692.955,106.5,651.264,40.338,599.15z"/>
<path fill="#176B36" stroke="#000000" stroke-width="0.75" d="M114.204,590.54c0,0-29.002,56.191,15.861,110.118
	C130.064,700.658,145.472,629.512,114.204,590.54z"/>
<path fill="#176B36" stroke="#000000" stroke-width="0.75" d="M461.071,353.082c0,0,38.065,14.955,42.145,63.896
	C503.216,416.979,465.603,392.055,461.071,353.082z"/>
<path fill="#176B36" stroke="#000000" stroke-width="0.75" d="M454.727,388.882c0,0,29.456,5.438,47.583,52.114
	C502.31,440.996,462.431,426.042,454.727,388.882z"/>
<path fill="#176B36" stroke="#000000" stroke-width="0.75" d="M511.372,386.616c0,0,32.175,43.957,8.61,88.819
	C519.982,475.436,496.418,444.622,511.372,386.616z"/>
<path fill="#176B36" stroke="#000000" stroke-width="0.75" d="M470.588,436.918c0,0,43.957,14.954,46.223,67.974
	C516.811,504.892,482.37,483.14,470.588,436.918z"/>
<path fill="#176B36" stroke="#000000" stroke-width="0.75" d="M487.354,488.578c0,0,38.52,33.534,31.722,83.836
	C519.076,572.414,480.558,537.973,487.354,488.578z"/>
<path fill="#176B36" stroke="#000000" stroke-width="0.75" d="M540.375,439.637c0,0,25.378,67.521-13.142,115.104
	C527.233,554.74,513.639,495.375,540.375,439.637z"/>
<path fill="#176B36" stroke="#000000" stroke-width="0.75" d="M518.17,623.62c0,0,47.583-29.454,36.707-103.32
	C554.877,520.3,519.076,556.1,518.17,623.62z"/>
<path fill="#176B36" stroke="#000000" stroke-width="0.75" d="M505.028,633.137c0,0,16.313-50.3-16.768-96.07
	C488.261,537.066,473.307,569.694,505.028,633.137z"/>
<path fill="#176B36" stroke="#000000" stroke-width="0.75" d="M554.877,599.15c0,0,2.719,55.738-68.429,93.805
	C486.448,692.955,488.714,651.264,554.877,599.15z"/>
<path fill="#176B36" stroke="#000000" stroke-width="0.75" d="M481.011,590.54c0,0,29.002,56.191-15.861,110.118
	C465.149,700.658,449.742,629.512,481.011,590.54z"/>
<path fill="#BD1D22" stroke="#000000" stroke-width="0.5" d="M484.607,739.787c0,0,58.008-34.738,75.83-93.955
	c0,0,23.869,47.126-23.564,103.018c0,0,23.265-2.418,32.628,33.533c0,0-20.244-8.153-30.514,18.432c0,0-19.332,33.835-51.358,37.461
	c-32.023,3.625-6.116-39.504-6.116-39.504"/>
<path fill="#BD1D22" stroke="#000000" stroke-width="0.5" d="M475.284,836.199c0,0-2.417-12.617,30.49-25.135
	c14.413-5.483,22.072-7.686,21.737-18.32"/>
<path fill="#CB2027" stroke="#000000" stroke-width="0.75" d="M300.039,757.271c0,0,93.651,6.619,155.147-25.946
	c24.241-12.836,40.487-47.129,57.102-4.38s15.164,65.403,15.164,65.403c-2.085-3.521-5.804-3.322-7.886-3.075
	c-53.731,6.387-50.803,24.081-110.449,39.856c0,0-41.464,9.97-109.231,10.88"/>
<path fill="#BD1D22" stroke="#000000" stroke-width="0.5" d="M125.033,835.432c0,0,2.645-11.85-30.262-24.367
	c-14.414-5.483-22.074-7.686-21.739-18.32"/>
<path fill="#CB2027" stroke="#000000" stroke-width="0.75" d="M300.512,757.297c0,0-97.792,1.388-155.154-25.972
	c-24.758-11.808-40.486-47.129-57.102-4.38c-16.614,42.749-15.163,65.403-15.163,65.403c2.083-3.521,5.802-3.322,7.884-3.075
	c53.731,6.387,50.803,24.081,110.449,39.856c0,0,41.465,9.97,109.231,10.88"/>
<g>
	<g>
		<path fill="#FFFFFF" d="M113.67,748.902c0.018,0.288,0.012,0.585-0.017,0.885c-0.031,0.305-0.079,0.596-0.146,0.887
			c-0.066,0.289-0.147,0.564-0.243,0.821c-0.095,0.262-0.188,0.487-0.283,0.686c-1.333,2.751-2.666,5.501-3.998,8.252
			c-0.27,0.557-0.366,1.051-0.284,1.482c0.08,0.437,0.264,0.82,0.551,1.154c0.284,0.337,0.638,0.633,1.063,0.882
			c0.42,0.252,0.839,0.474,1.25,0.668c0.391,0.186,0.813,0.322,1.271,0.403s0.901,0.085,1.333,0.009
			c0.428-0.074,0.825-0.24,1.196-0.502c0.369-0.255,0.668-0.634,0.898-1.133c1.267-2.741,2.534-5.482,3.801-8.224
			c0.117-0.253,0.209-0.523,0.274-0.807c0.065-0.286,0.107-0.562,0.131-0.831c0.021-0.271,0.027-0.527,0.019-0.769
			c-0.009-0.239-0.025-0.453-0.047-0.643c1.189,0.554,2.381,1.101,3.575,1.643c0.078,0.304,0.115,0.596,0.108,0.892
			c-0.004,0.289-0.037,0.573-0.092,0.845c-0.054,0.271-0.129,0.524-0.218,0.764c-0.09,0.238-0.174,0.449-0.256,0.631
			c-1.293,2.867-2.587,5.735-3.881,8.604c-0.206,0.456-0.496,0.829-0.873,1.124c-0.374,0.297-0.803,0.522-1.284,0.677
			c-0.481,0.151-1.004,0.244-1.567,0.27c-0.565,0.03-1.138,0-1.721-0.083s-1.165-0.208-1.74-0.379
			c-0.577-0.168-1.117-0.375-1.624-0.614c-0.403-0.19-0.823-0.397-1.261-0.623c-0.438-0.224-0.869-0.469-1.293-0.735
			c-0.425-0.264-0.821-0.545-1.192-0.842c-0.372-0.295-0.692-0.608-0.962-0.941c-0.256,0.029-0.535,0.026-0.834-0.014
			c-0.298-0.04-0.596-0.104-0.895-0.184c-0.297-0.08-0.592-0.175-0.884-0.286c-0.289-0.108-0.546-0.226-0.772-0.338
			c-0.605-0.301-1.102-0.625-1.49-0.978c-0.388-0.35-0.679-0.711-0.876-1.085c-0.192-0.375-0.292-0.752-0.292-1.134
			c0.002-0.376,0.093-0.742,0.269-1.086c0.164-0.322,0.405-0.589,0.723-0.805c0.32-0.21,0.691-0.354,1.117-0.43
			c0.427-0.077,0.897-0.069,1.41,0.014c0.515,0.085,1.05,0.271,1.606,0.547c0.082,0.041,0.171,0.086,0.262,0.139
			c0.096,0.052,0.19,0.106,0.288,0.166c1.235-2.49,2.471-4.981,3.706-7.472c0.111-0.225,0.216-0.482,0.31-0.775
			c0.095-0.293,0.172-0.59,0.229-0.89c0.057-0.3,0.09-0.588,0.107-0.865c0.015-0.28,0.005-0.519-0.026-0.728
			C111.299,747.741,112.484,748.325,113.67,748.902z M103.419,759.781c-0.165,0.33-0.25,0.636-0.251,0.92
			c0,0.281,0.083,0.464,0.246,0.545s0.36,0.038,0.584-0.133c0.224-0.173,0.42-0.423,0.584-0.753
			c0.166-0.333,0.246-0.642,0.249-0.924c0.002-0.284-0.08-0.468-0.242-0.549c-0.162-0.08-0.357-0.035-0.583,0.138
			C103.779,759.197,103.585,759.449,103.419,759.781z"/>
		<path fill="#FFFFFF" d="M126.21,759.248c0.153-0.346,0.389-0.634,0.712-0.857c0.321-0.223,0.697-0.381,1.128-0.471
			c0.43-0.086,0.887-0.107,1.375-0.049c0.487,0.049,0.972,0.183,1.457,0.391c0.484,0.209,0.915,0.47,1.287,0.791
			c0.375,0.313,0.674,0.66,0.906,1.03c0.23,0.375,0.373,0.758,0.433,1.145c0.058,0.388,0.013,0.758-0.134,1.106
			c-0.112,0.268-0.324,0.51-0.638,0.73c-0.315,0.221-0.683,0.416-1.1,0.582c-0.092-0.039-0.185-0.078-0.277-0.117
			c0.252,0.229,0.536,0.43,0.844,0.609c0.31,0.181,0.581,0.32,0.816,0.419c0.603,0.251,1.213,0.422,1.831,0.516
			c0.617,0.095,1.212,0.071,1.775-0.071c0.564-0.143,1.078-0.416,1.543-0.819c0.466-0.404,0.848-0.975,1.149-1.72
			c1.194,0.483,2.39,0.96,3.587,1.432c-0.407,1.034-1,1.82-1.788,2.354c-0.788,0.538-1.685,0.879-2.692,1.027
			c-1.009,0.144-2.083,0.11-3.218-0.096c-1.137-0.209-2.245-0.537-3.323-0.989c-0.936-0.393-1.832-0.899-2.686-1.52
			c-0.856-0.623-1.614-1.36-2.273-2.213c-0.194-0.25-0.359-0.519-0.49-0.813c-0.134-0.294-0.23-0.585-0.291-0.878
			c-0.057-0.295-0.082-0.573-0.075-0.838C126.079,759.667,126.125,759.439,126.21,759.248z M123.367,765.688
			c0.153-0.347,0.39-0.632,0.716-0.854c0.325-0.225,0.705-0.378,1.142-0.466c0.437-0.085,0.899-0.102,1.396-0.043
			c0.493,0.057,0.987,0.19,1.479,0.402c0.492,0.211,0.929,0.479,1.31,0.799c0.381,0.32,0.688,0.666,0.924,1.042
			c0.236,0.378,0.385,0.76,0.447,1.149c0.061,0.389,0.018,0.757-0.128,1.106c-0.112,0.268-0.325,0.508-0.643,0.728
			c-0.318,0.22-0.689,0.413-1.113,0.58c-0.094-0.04-0.188-0.079-0.282-0.119c0.258,0.229,0.545,0.436,0.859,0.616
			c0.317,0.18,0.593,0.319,0.833,0.419c0.612,0.256,1.23,0.436,1.859,0.53c0.625,0.099,1.229,0.079,1.8-0.061
			c0.571-0.14,1.089-0.407,1.56-0.813c0.47-0.402,0.856-0.976,1.154-1.713c1.214,0.49,2.43,0.976,3.647,1.455
			c-0.406,1.031-1.003,1.815-1.8,2.35c-0.795,0.533-1.704,0.871-2.722,1.006c-1.023,0.14-2.113,0.102-3.265-0.11
			c-1.156-0.213-2.281-0.549-3.377-1.009c-0.951-0.399-1.862-0.913-2.731-1.542c-0.873-0.627-1.646-1.37-2.317-2.235
			c-0.199-0.249-0.369-0.52-0.503-0.814c-0.139-0.293-0.237-0.588-0.3-0.882c-0.06-0.294-0.087-0.572-0.083-0.838
			C123.237,766.105,123.283,765.878,123.367,765.688z M129.208,760.539c-0.148,0.342-0.215,0.652-0.202,0.935
			c0.01,0.283,0.102,0.461,0.265,0.531c0.166,0.071,0.356,0.015,0.568-0.173c0.214-0.185,0.394-0.446,0.54-0.788
			c0.145-0.338,0.211-0.649,0.198-0.932c-0.01-0.281-0.1-0.455-0.265-0.526c-0.163-0.07-0.353-0.018-0.564,0.169
			C129.534,759.939,129.354,760.202,129.208,760.539z M126.414,767.003c-0.146,0.338-0.213,0.649-0.198,0.933
			c0.012,0.283,0.105,0.463,0.272,0.535c0.168,0.072,0.361,0.016,0.575-0.171c0.216-0.184,0.396-0.445,0.542-0.784
			c0.145-0.339,0.21-0.649,0.197-0.937c-0.012-0.283-0.103-0.46-0.271-0.531c-0.166-0.071-0.358-0.018-0.573,0.169
			C126.741,766.402,126.56,766.664,126.414,767.003z"/>
		<path fill="#FFFFFF" d="M160.81,783.203c-0.061,0.184-0.141,0.377-0.24,0.586c-0.1,0.209-0.214,0.422-0.343,0.636
			c-0.131,0.214-0.278,0.423-0.44,0.627c-0.162,0.202-0.344,0.384-0.537,0.54c-1.301-0.434-2.601-0.874-3.898-1.32
			c0.188-0.127,0.37-0.284,0.547-0.471c0.176-0.19,0.343-0.396,0.5-0.629c0.158-0.23,0.301-0.479,0.432-0.741
			c0.13-0.261,0.241-0.522,0.331-0.787c1.071-3.132,2.141-6.265,3.211-9.396c0.064-0.188,0.129-0.388,0.196-0.597
			c0.064-0.209,0.118-0.412,0.154-0.605c0.035-0.188,0.055-0.363,0.053-0.508c-0.001-0.15-0.033-0.264-0.103-0.336
			c0.02,0.044-0.035,0.101-0.16,0.167c-0.125,0.062-0.269,0.128-0.432,0.195c-0.163,0.075-0.343,0.144-0.542,0.218
			c-0.2,0.077-0.419,0.127-0.663,0.16c-0.245,0.03-0.515,0.035-0.819,0.004c-0.301-0.034-0.639-0.114-1.011-0.245
			c-0.114-0.04-0.228-0.08-0.342-0.12c-0.077,0.449-0.18,0.879-0.305,1.289c-0.128,0.409-0.248,0.779-0.364,1.11
			c-0.699,1.987-1.398,3.974-2.098,5.96c-0.259,0.736-0.643,1.337-1.154,1.805c-0.51,0.463-1.11,0.791-1.799,0.98
			c-0.69,0.19-1.461,0.244-2.311,0.162c-0.849-0.078-1.744-0.291-2.678-0.636c-1.042-0.386-1.949-0.809-2.725-1.275
			c-0.775-0.464-1.386-0.98-1.834-1.554c-0.447-0.569-0.714-1.209-0.807-1.908c-0.093-0.7,0.03-1.478,0.361-2.331
			c0.173-0.446,0.423-0.873,0.748-1.279c0.323-0.402,0.694-0.791,1.106-1.165c0.414-0.376,0.853-0.743,1.313-1.093
			c0.461-0.354,0.915-0.695,1.364-1.027c-0.005-0.002-0.01-0.004-0.015-0.006c0.181-0.133,0.354-0.263,0.52-0.393
			c0.167-0.13,0.333-0.253,0.496-0.376c0.181,0.068,0.362,0.137,0.543,0.206c-0.42-0.167-0.825-0.388-1.211-0.658
			c-0.384-0.271-0.71-0.571-0.973-0.903c-0.262-0.329-0.442-0.684-0.545-1.062c-0.102-0.377-0.078-0.76,0.075-1.152
			c0.155-0.397,0.387-0.737,0.694-1.017c0.307-0.277,0.671-0.473,1.092-0.596c0.422-0.122,0.888-0.162,1.397-0.127
			c0.511,0.036,1.058,0.161,1.638,0.379c0.539,0.204,1.021,0.457,1.443,0.758c0.421,0.3,0.759,0.634,1.016,0.992
			c0.256,0.362,0.421,0.749,0.496,1.164c0.074,0.416,0.03,0.842-0.127,1.271c-0.092,0.252-0.253,0.521-0.485,0.802
			c-0.231,0.28-0.507,0.571-0.825,0.862c-0.321,0.293-0.671,0.595-1.057,0.9c-0.386,0.314-0.786,0.626-1.198,0.942
			c-0.395,0.302-0.789,0.605-1.183,0.914c-0.395,0.311-0.763,0.637-1.103,0.972c-0.342,0.335-0.65,0.688-0.929,1.06
			c-0.275,0.369-0.493,0.764-0.652,1.185c-0.197,0.522-0.279,0.977-0.245,1.365c0.033,0.386,0.151,0.722,0.35,1.012
			c0.199,0.286,0.463,0.53,0.792,0.728c0.331,0.195,0.696,0.368,1.1,0.518c0.326,0.12,0.668,0.175,1.032,0.158
			c0.359-0.016,0.704-0.097,1.04-0.238c0.332-0.146,0.636-0.36,0.902-0.636c0.27-0.282,0.476-0.622,0.623-1.029
			c0.904-2.496,1.809-4.992,2.713-7.488c0.225-0.62,0.349-1.233,0.372-1.843c0.02-0.606-0.104-1.202-0.381-1.781
			c1.115-0.272,2.227-0.549,3.335-0.83c0.087,0.374,0.176,0.732,0.273,1.083c0.093,0.353,0.19,0.667,0.292,0.948
			c0.104,0.277,0.213,0.512,0.325,0.702c0.112,0.189,0.231,0.302,0.354,0.345c0.025,0.01,0.051,0.019,0.077,0.027
			c-0.054-0.037-0.01-0.102,0.133-0.181c0.146-0.08,0.323-0.177,0.533-0.282c0.142-0.079,0.296-0.152,0.467-0.228
			c0.17-0.071,0.365-0.119,0.589-0.151c0.224-0.026,0.481-0.023,0.773,0.01c0.294,0.03,0.646,0.119,1.057,0.261
			c1.374,0.472,2.323,1.091,2.853,1.86c0.527,0.774,0.617,1.688,0.266,2.749C163.107,776.277,161.958,779.74,160.81,783.203z
			 M148.689,766.672c0.131-0.349,0.181-0.658,0.156-0.937c-0.024-0.273-0.123-0.444-0.297-0.51
			c-0.164-0.062-0.341,0.005-0.538,0.193c-0.197,0.195-0.36,0.462-0.493,0.81c-0.138,0.365-0.197,0.683-0.176,0.955
			c0.021,0.278,0.11,0.443,0.275,0.506c0.175,0.066,0.362,0.006,0.563-0.188C148.381,767.312,148.552,767.036,148.689,766.672z"/>
		<path fill="#FFFFFF" d="M173.271,774.266c-0.217-0.067-0.453-0.113-0.7-0.139c-0.248-0.024-0.499-0.028-0.749-0.021
			c-0.248,0.012-0.488,0.04-0.719,0.091c-0.235,0.05-0.434,0.112-0.611,0.19c0.062,0.021,0.125,0.04,0.187,0.06
			c0.574,0.18,1.066,0.408,1.477,0.684c0.412,0.271,0.736,0.572,0.974,0.899c0.236,0.33,0.385,0.678,0.451,1.051
			c0.064,0.371,0.04,0.741-0.074,1.112c-0.12,0.395-0.322,0.721-0.613,0.994c-0.289,0.271-0.64,0.479-1.045,0.621
			c-0.405,0.138-0.858,0.205-1.353,0.2c-0.495-0.009-1.011-0.095-1.55-0.265c-0.747-0.234-1.364-0.521-1.853-0.855
			c-0.483-0.329-0.85-0.708-1.098-1.122c-0.248-0.416-0.385-0.866-0.417-1.346c-0.025-0.485,0.047-0.989,0.22-1.521
			c0.189-0.579,0.563-1.082,1.124-1.518c0.561-0.434,1.215-0.765,1.972-1.002c0.754-0.234,1.569-0.354,2.442-0.372
			c0.873-0.012,1.724,0.109,2.552,0.364c0.92,0.283,1.788,0.677,2.602,1.184c0.814,0.503,1.508,1.082,2.079,1.734
			c0.574,0.65,0.981,1.36,1.224,2.124c0.246,0.759,0.254,1.546,0.023,2.349c-0.779,2.706-1.558,5.412-2.336,8.119
			c-0.024,0.084-0.077,0.213-0.144,0.379c-0.072,0.166-0.156,0.35-0.255,0.547c-0.1,0.205-0.202,0.411-0.311,0.622
			c-0.106,0.214-0.214,0.415-0.313,0.604c-0.102,0.188-0.189,0.354-0.265,0.491c-0.076,0.14-0.135,0.236-0.172,0.289
			c-1.341-0.388-2.681-0.782-4.019-1.184c0.05-0.048,0.155-0.19,0.313-0.424c0.158-0.236,0.333-0.509,0.529-0.835
			c0.197-0.322,0.386-0.657,0.568-1.01c0.178-0.354,0.311-0.668,0.393-0.947c0.799-2.684,1.598-5.367,2.397-8.052
			c0.128-0.431,0.123-0.863-0.016-1.301c-0.135-0.436-0.353-0.842-0.652-1.212c-0.298-0.37-0.647-0.696-1.052-0.978
			C174.079,774.592,173.674,774.39,173.271,774.266z M170.4,777.264c0.11-0.351,0.148-0.665,0.114-0.94
			c-0.035-0.271-0.137-0.433-0.304-0.485c-0.167-0.053-0.348,0.021-0.543,0.219c-0.197,0.202-0.349,0.48-0.459,0.832
			c-0.118,0.371-0.155,0.693-0.109,0.972c0.046,0.274,0.154,0.441,0.321,0.494c0.168,0.054,0.346-0.024,0.53-0.227
			C170.133,777.923,170.284,777.636,170.4,777.264z"/>
		<path fill="#FFFFFF" d="M198.337,790.8c-0.254,1.078-0.747,1.923-1.484,2.538c-0.734,0.607-1.611,1.033-2.625,1.268
			c-1.015,0.239-2.113,0.313-3.295,0.225c-1.183-0.086-2.347-0.276-3.489-0.573c-0.543-0.141-1.125-0.338-1.745-0.589
			c-0.621-0.252-1.229-0.551-1.827-0.895c-0.601-0.342-1.162-0.731-1.686-1.162c-0.52-0.43-0.961-0.886-1.321-1.371
			c-0.36-0.483-0.611-0.998-0.756-1.535c-0.144-0.536-0.134-1.089,0.025-1.655c0.128-0.452,0.348-0.833,0.667-1.144
			c0.318-0.312,0.701-0.541,1.152-0.695c0.449-0.155,0.954-0.23,1.508-0.229c0.557,0.002,1.142,0.089,1.759,0.257
			c1.148,0.32,1.969,0.814,2.47,1.479c0.497,0.67,0.644,1.4,0.438,2.191c-0.185,0.706-0.585,1.225-1.2,1.552
			c-0.619,0.328-1.438,0.411-2.46,0.249c0.103,0.028,0.206,0.056,0.308,0.083c0.196,0.178,0.428,0.346,0.698,0.507
			c0.271,0.16,0.55,0.308,0.84,0.438c0.287,0.136,0.565,0.249,0.829,0.343c0.265,0.095,0.496,0.166,0.689,0.217
			c0.651,0.169,1.326,0.289,2.032,0.354c0.702,0.067,1.371,0.027,2.002-0.125c0.63-0.153,1.188-0.443,1.674-0.879
			c0.486-0.435,0.833-1.074,1.039-1.917c0.378-1.54,0.756-3.08,1.135-4.62c0.199-0.813,0.2-1.538,0.007-2.168
			c-0.188-0.635-0.507-1.19-0.948-1.663c-0.44-0.478-0.966-0.87-1.583-1.185c-0.612-0.316-1.239-0.558-1.879-0.725
			c-0.262-0.067-0.564-0.129-0.902-0.184c-0.338-0.052-0.694-0.08-1.064-0.087c-0.368-0.001-0.74,0.021-1.112,0.07
			c-0.375,0.05-0.719,0.146-1.034,0.287c-0.315,0.146-0.592,0.336-0.83,0.575c-0.242,0.241-0.413,0.548-0.515,0.924
			c-1.239-0.338-2.477-0.681-3.713-1.029c0.165-0.585,0.44-1.073,0.828-1.466c0.385-0.385,0.844-0.696,1.376-0.927
			c0.532-0.228,1.116-0.389,1.757-0.485c0.637-0.097,1.286-0.137,1.949-0.123c0.662,0.014,1.323,0.069,1.979,0.165
			c0.656,0.097,1.271,0.218,1.845,0.367c0.764,0.198,1.502,0.442,2.219,0.733c0.719,0.288,1.387,0.624,2.01,1.004
			c0.624,0.381,1.182,0.807,1.675,1.275c0.494,0.471,0.895,0.982,1.208,1.542c0.315,0.556,0.521,1.155,0.618,1.8
			c0.101,0.646,0.064,1.332-0.107,2.06C199.112,787.515,198.725,789.157,198.337,790.8z M184.984,788.027
			c0.096-0.354,0.119-0.668,0.072-0.941c-0.047-0.269-0.156-0.431-0.326-0.477c-0.181-0.05-0.365,0.033-0.547,0.239
			c-0.183,0.211-0.325,0.493-0.421,0.847c-0.104,0.38-0.126,0.7-0.075,0.974c0.053,0.271,0.171,0.434,0.354,0.482
			c0.171,0.046,0.347-0.034,0.524-0.244C184.743,788.695,184.882,788.407,184.984,788.027z"/>
		<path fill="#FFFFFF" d="M201.473,773.074c-0.1,0.417-0.301,0.776-0.609,1.077c-0.307,0.301-0.67,0.554-1.086,0.759
			c-0.418,0.198-0.866,0.354-1.342,0.464c-0.479,0.109-0.944,0.188-1.395,0.229c-0.452,0.041-0.866,0.056-1.234,0.039
			c-0.373-0.017-0.657-0.049-0.855-0.1c-0.239-0.061-0.464-0.139-0.669-0.239c-0.208-0.1-0.38-0.21-0.521-0.334
			c-0.139-0.122-0.242-0.249-0.311-0.375c-0.067-0.124-0.085-0.246-0.055-0.363c0.037-0.144,0.131-0.258,0.288-0.342
			c0.153-0.084,0.345-0.145,0.577-0.185c0.23-0.036,0.486-0.063,0.762-0.069c0.277-0.006,0.563-0.01,0.859-0.004
			c0.044-0.001,0.087-0.001,0.123,0c0.039,0,0.081,0,0.124-0.004c-0.02-0.005-0.04-0.01-0.06-0.015
			c0.2-0.01,0.401-0.038,0.606-0.086c0.204-0.043,0.391-0.117,0.564-0.22c0.176-0.1,0.325-0.234,0.454-0.397
			s0.221-0.362,0.278-0.593c0.078-0.313,0.035-0.629-0.122-0.96c-0.158-0.328-0.423-0.646-0.792-0.954
			c-0.37-0.307-0.836-0.595-1.403-0.862c-0.564-0.269-1.214-0.497-1.95-0.689c-0.542-0.142-1.101-0.244-1.674-0.309
			c-0.571-0.063-1.105-0.067-1.599-0.009c-0.494,0.061-0.919,0.188-1.273,0.392c-0.359,0.2-0.593,0.506-0.704,0.913
			c-0.063,0.229-0.069,0.455-0.021,0.678c0.052,0.219,0.138,0.426,0.266,0.614c0.122,0.188,0.274,0.36,0.445,0.518
			c0.176,0.153,0.359,0.28,0.557,0.374c-0.016-0.005-0.032-0.009-0.048-0.014c0.792,0.345,1.319,0.648,1.581,0.916
			c0.263,0.266,0.361,0.52,0.298,0.76c-0.033,0.126-0.116,0.229-0.249,0.315c-0.134,0.085-0.293,0.145-0.48,0.185
			c-0.188,0.034-0.397,0.053-0.627,0.037c-0.231-0.006-0.458-0.04-0.674-0.099c-0.196-0.053-0.46-0.167-0.794-0.337
			c-0.328-0.174-0.681-0.391-1.056-0.65c-0.372-0.263-0.739-0.563-1.104-0.895c-0.362-0.336-0.678-0.688-0.945-1.064
			c-0.268-0.375-0.463-0.761-0.58-1.166c-0.122-0.402-0.125-0.797-0.014-1.192c0.158-0.559,0.538-1.013,1.136-1.364
			c0.601-0.35,1.334-0.594,2.2-0.74c0.868-0.143,1.82-0.183,2.863-0.119c1.041,0.063,2.08,0.228,3.117,0.498
			c0.58,0.15,1.17,0.352,1.778,0.59c0.608,0.243,1.19,0.517,1.752,0.83c0.562,0.313,1.084,0.646,1.565,1.005
			c0.483,0.36,0.889,0.739,1.223,1.134c0.334,0.393,0.579,0.795,0.737,1.207C201.537,772.271,201.567,772.677,201.473,773.074z"/>
		<path fill="#FFFFFF" d="M220.638,798.408c-0.062,0.346-0.128,0.637-0.198,0.871c-0.07,0.236-0.154,0.451-0.242,0.641
			c-0.092,0.193-0.197,0.371-0.317,0.537c-0.123,0.168-0.265,0.344-0.436,0.54c-1.372-0.249-2.743-0.504-4.113-0.766
			c0.174-0.15,0.337-0.297,0.483-0.434c0.147-0.142,0.278-0.298,0.396-0.466c0.118-0.173,0.222-0.369,0.308-0.59
			c0.086-0.222,0.159-0.481,0.214-0.774c0.573-3.033,1.145-6.065,1.718-9.099c0.074-0.393,0.111-0.792,0.112-1.203
			c0-0.41-0.05-0.787-0.151-1.128c-0.1-0.339-0.264-0.63-0.486-0.878c-0.222-0.248-0.514-0.4-0.876-0.472
			c-0.38-0.073-0.714-0.045-0.999,0.087c-0.285,0.131-0.535,0.331-0.745,0.599c-0.215,0.269-0.395,0.591-0.535,0.971
			c-0.143,0.38-0.254,0.772-0.336,1.187c-0.47,2.364-0.94,4.729-1.41,7.093c-0.152,0.766-0.439,1.415-0.865,1.955
			c-0.423,0.532-0.957,0.945-1.597,1.233c-0.641,0.29-1.377,0.457-2.204,0.502c-0.828,0.048-1.719-0.03-2.674-0.234
			c-1.063-0.229-1.999-0.514-2.809-0.859c-0.807-0.343-1.462-0.762-1.964-1.26c-0.501-0.495-0.837-1.085-1.009-1.76
			c-0.172-0.676-0.152-1.459,0.054-2.352c0.092-0.398,0.308-0.886,0.645-1.451c0.335-0.569,0.802-1.174,1.401-1.814
			c0.206-0.211,0.495-0.476,0.863-0.795c0.372-0.318,0.757-0.649,1.158-0.991c0.194-0.159,0.375-0.314,0.544-0.47
			c0.167-0.15,0.337-0.306,0.504-0.464c0.166,0.037,0.331,0.073,0.497,0.11c-0.551-0.13-1.061-0.308-1.525-0.529
			c-0.466-0.224-0.857-0.484-1.171-0.788c-0.319-0.303-0.544-0.646-0.679-1.031c-0.133-0.387-0.149-0.805-0.043-1.263
			c0.097-0.418,0.292-0.772,0.58-1.066c0.289-0.289,0.634-0.514,1.035-0.666c0.4-0.154,0.841-0.246,1.323-0.271
			c0.481-0.022,0.96,0.016,1.445,0.123c0.547,0.121,1.055,0.28,1.526,0.48c0.469,0.2,0.868,0.441,1.197,0.732
			c0.329,0.293,0.568,0.632,0.718,1.019c0.148,0.391,0.172,0.833,0.066,1.331c-0.087,0.413-0.245,0.817-0.474,1.218
			c-0.23,0.399-0.504,0.802-0.824,1.204c-0.318,0.397-0.675,0.801-1.07,1.202c-0.394,0.399-0.798,0.805-1.215,1.218
			c-0.214,0.218-0.429,0.431-0.644,0.639c-0.214,0.21-0.425,0.425-0.631,0.645c-0.44,0.454-0.77,0.926-0.993,1.416
			c-0.22,0.488-0.379,0.949-0.477,1.388c-0.122,0.547-0.142,1-0.064,1.368c0.079,0.365,0.23,0.663,0.452,0.896
			c0.224,0.234,0.505,0.416,0.841,0.551c0.336,0.134,0.7,0.241,1.095,0.326c0.336,0.072,0.673,0.075,1.008,0.003
			c0.333-0.072,0.647-0.204,0.939-0.396c0.291-0.196,0.542-0.453,0.756-0.768c0.216-0.319,0.365-0.688,0.453-1.11
			c0.488-2.341,0.975-4.681,1.463-7.021c0.153-0.734,0.387-1.398,0.706-2c0.318-0.604,0.742-1.095,1.267-1.475
			c0.524-0.384,1.164-0.639,1.919-0.767c0.754-0.127,1.649-0.089,2.682,0.112c1.054,0.204,1.934,0.496,2.64,0.879
			c0.704,0.38,1.257,0.838,1.656,1.378c0.399,0.539,0.652,1.156,0.757,1.852c0.106,0.692,0.087,1.446-0.059,2.262
			C221.696,792.513,221.167,795.461,220.638,798.408z M206.489,783.813c0.08-0.363,0.084-0.678,0.019-0.95
			c-0.07-0.269-0.186-0.422-0.357-0.46c-0.167-0.037-0.334,0.054-0.498,0.271c-0.166,0.222-0.29,0.509-0.371,0.872
			c-0.085,0.38-0.098,0.704-0.04,0.97c0.056,0.271,0.17,0.423,0.338,0.46c0.173,0.038,0.343-0.05,0.521-0.27
			C206.275,784.491,206.405,784.194,206.489,783.813z"/>
		<path fill="#FFFFFF" d="M224.571,789.038c0.065-0.374,0.227-0.709,0.483-1.005c0.253-0.294,0.577-0.539,0.967-0.732
			c0.39-0.188,0.823-0.318,1.3-0.383c0.478-0.07,0.973-0.06,1.484,0.024c0.512,0.085,0.983,0.232,1.415,0.453
			c0.43,0.213,0.8,0.477,1.106,0.779c0.308,0.308,0.536,0.644,0.683,1.004c0.145,0.361,0.19,0.73,0.132,1.105
			c-0.044,0.287-0.191,0.572-0.439,0.862c-0.248,0.292-0.553,0.57-0.916,0.832c-0.097-0.016-0.194-0.03-0.291-0.046
			c0.293,0.161,0.612,0.287,0.949,0.386c0.336,0.1,0.629,0.169,0.877,0.207c0.635,0.099,1.26,0.115,1.872,0.056
			c0.613-0.059,1.175-0.226,1.681-0.5c0.506-0.275,0.936-0.665,1.285-1.169c0.351-0.506,0.581-1.152,0.694-1.947
			c1.256,0.179,2.513,0.352,3.771,0.519c-0.146,1.102-0.531,2.009-1.16,2.716c-0.626,0.713-1.405,1.26-2.336,1.648
			c-0.93,0.385-1.963,0.613-3.098,0.689c-1.134,0.073-2.271,0.023-3.409-0.152c-0.984-0.152-1.961-0.427-2.925-0.819
			c-0.96-0.396-1.859-0.926-2.688-1.591c-0.243-0.195-0.466-0.416-0.66-0.669s-0.356-0.51-0.479-0.779
			c-0.124-0.272-0.213-0.537-0.269-0.794S224.535,789.243,224.571,789.038z M223.364,795.972c0.065-0.373,0.229-0.706,0.488-1.001
			c0.257-0.296,0.585-0.538,0.981-0.729c0.396-0.189,0.835-0.317,1.32-0.382c0.484-0.065,0.988-0.057,1.508,0.029
			c0.52,0.085,1,0.238,1.439,0.455c0.437,0.217,0.814,0.479,1.126,0.785c0.313,0.309,0.546,0.643,0.697,1.006
			c0.148,0.362,0.195,0.729,0.137,1.104c-0.044,0.286-0.193,0.571-0.444,0.861c-0.251,0.291-0.561,0.568-0.929,0.833
			c-0.098-0.016-0.197-0.031-0.295-0.047c0.299,0.159,0.623,0.289,0.965,0.389c0.343,0.097,0.641,0.164,0.894,0.203
			c0.645,0.1,1.279,0.124,1.901,0.063c0.623-0.057,1.193-0.223,1.707-0.496c0.514-0.273,0.949-0.66,1.303-1.166
			c0.355-0.505,0.588-1.154,0.7-1.942c1.277,0.182,2.555,0.357,3.833,0.527c-0.146,1.099-0.535,2.004-1.172,2.715
			c-0.634,0.711-1.425,1.258-2.37,1.636c-0.945,0.383-1.995,0.613-3.147,0.686c-1.152,0.075-2.308,0.021-3.464-0.157
			c-1-0.155-1.994-0.432-2.973-0.831c-0.977-0.395-1.892-0.927-2.735-1.602c-0.249-0.192-0.475-0.414-0.673-0.668
			c-0.199-0.248-0.363-0.51-0.489-0.78c-0.127-0.27-0.219-0.533-0.276-0.792C223.338,796.409,223.328,796.178,223.364,795.972z
			 M227.738,789.559c-0.061,0.367-0.051,0.685,0.026,0.954c0.078,0.272,0.205,0.423,0.378,0.451
			c0.176,0.028,0.341-0.073,0.502-0.306c0.161-0.231,0.272-0.528,0.333-0.896c0.059-0.363,0.048-0.681-0.03-0.952
			c-0.078-0.271-0.202-0.416-0.376-0.445c-0.172-0.029-0.339,0.069-0.5,0.301C227.91,788.897,227.798,789.195,227.738,789.559z
			 M226.583,796.504c-0.061,0.364-0.05,0.683,0.029,0.952c0.08,0.273,0.209,0.425,0.386,0.453c0.179,0.029,0.347-0.072,0.51-0.306
			c0.164-0.23,0.275-0.527,0.335-0.892c0.059-0.363,0.047-0.681-0.033-0.955c-0.08-0.272-0.206-0.421-0.383-0.45
			c-0.175-0.029-0.345,0.07-0.508,0.303C226.756,795.844,226.644,796.141,226.583,796.504z"/>
		<path fill="#FFFFFF" d="M261.795,789.704c0.077,0.221,0.147,0.45,0.215,0.689c0.068,0.24,0.121,0.482,0.167,0.718
			c0.045,0.241,0.08,0.476,0.105,0.7c0.024,0.229,0.03,0.435,0.015,0.613c-0.263,3.168-0.525,6.336-0.788,9.504
			c-0.046,0.559-0.233,1.055-0.558,1.489c-0.328,0.435-0.741,0.811-1.241,1.128c-0.501,0.318-1.07,0.582-1.703,0.787
			c-0.633,0.21-1.287,0.37-1.958,0.48c-0.673,0.11-1.34,0.177-1.997,0.197c-0.658,0.021-1.254,0.003-1.787-0.053
			c-0.967-0.1-1.972-0.274-3.011-0.524c-1.04-0.251-2.028-0.623-2.956-1.111c-0.55-0.3-1.056-0.624-1.516-0.977
			c-0.463-0.351-0.854-0.731-1.182-1.14c-0.324-0.407-0.563-0.838-0.715-1.287c-0.157-0.456-0.201-0.93-0.138-1.425
			c0.034-0.267,0.137-0.525,0.308-0.775c0.168-0.249,0.388-0.475,0.66-0.68c0.267-0.202,0.578-0.38,0.929-0.533
			c0.352-0.153,0.726-0.272,1.122-0.353c-0.054-0.006-0.108-0.013-0.162-0.02c-0.356-0.264-0.67-0.557-0.938-0.879
			c-0.271-0.318-0.495-0.649-0.678-0.986c-0.183-0.341-0.314-0.683-0.391-1.023c-0.08-0.346-0.097-0.669-0.058-0.974
			c0.085-0.665,0.255-1.257,0.512-1.771c0.256-0.517,0.566-0.967,0.929-1.356c0.365-0.387,0.771-0.707,1.222-0.966
			c0.446-0.256,0.911-0.46,1.39-0.61c0.476-0.146,0.953-0.244,1.427-0.291c0.477-0.046,0.922-0.045,1.336,0.001
			c0.523,0.06,1.006,0.191,1.455,0.39c0.449,0.199,0.829,0.445,1.136,0.744c0.309,0.301,0.545,0.635,0.708,1
			c0.163,0.369,0.222,0.753,0.181,1.146c-0.03,0.29-0.146,0.58-0.351,0.875c-0.206,0.296-0.478,0.56-0.819,0.787
			c-0.339,0.234-0.74,0.408-1.202,0.529c-0.46,0.122-0.959,0.149-1.5,0.089c-0.521-0.058-0.994-0.151-1.422-0.286
			c-0.425-0.135-0.798-0.318-1.108-0.543c-0.021,0.183-0.043,0.365-0.065,0.549c-0.06,0.506-0.004,0.94,0.167,1.3
			c0.172,0.361,0.407,0.667,0.709,0.911c0.302,0.246,0.644,0.438,1.024,0.57c0.381,0.136,0.756,0.22,1.128,0.261
			c0.054,0.006,0.108,0.012,0.162,0.019c0.109,0.012,0.226,0.021,0.35,0.031c0.127,0.01,0.278,0.015,0.453,0.018
			c0.177,0.008,0.392,0.005,0.652,0.002c0.257-0.002,0.581-0.007,0.968-0.018c0.009,0.699,0.019,1.398,0.029,2.098
			c-0.197-0.014-0.49-0.023-0.876-0.032c-0.385-0.012-0.812-0.01-1.276-0.005c-0.464,0.011-0.942,0.04-1.428,0.09
			c-0.485,0.045-0.933,0.114-1.345,0.222c-0.411,0.105-0.756,0.243-1.032,0.421c-0.275,0.181-0.429,0.403-0.46,0.67
			c-0.035,0.299-0.013,0.577,0.069,0.832s0.198,0.494,0.353,0.711c0.15,0.22,0.333,0.42,0.54,0.602
			c0.208,0.176,0.418,0.329,0.628,0.456c0.384,0.232,0.785,0.427,1.199,0.577c0.415,0.152,0.812,0.276,1.193,0.372
			c0.38,0.095,0.73,0.164,1.05,0.211c0.321,0.04,0.591,0.072,0.812,0.096c0.553,0.058,1.124,0.047,1.715-0.035
			c0.587-0.081,1.135-0.256,1.639-0.523c0.506-0.269,0.931-0.635,1.271-1.099c0.346-0.467,0.55-1.056,0.616-1.772
			c0.227-2.46,0.454-4.921,0.68-7.382c0.027-0.297,0.05-0.625,0.065-0.986c0.018-0.356,0.012-0.713-0.016-1.061
			c-0.028-0.347-0.076-0.679-0.145-0.983c-0.068-0.308-0.172-0.564-0.315-0.769C259.229,789.481,260.512,789.596,261.795,789.704z
			 M250.675,791.09c0.04-0.358,0.022-0.667-0.05-0.929c-0.076-0.257-0.189-0.396-0.337-0.412c-0.193-0.021-0.366,0.077-0.521,0.295
			c-0.154,0.218-0.252,0.521-0.296,0.91c-0.042,0.365-0.016,0.689,0.084,0.965c0.1,0.278,0.246,0.427,0.44,0.448
			c0.149,0.018,0.292-0.1,0.425-0.352C250.548,791.767,250.635,791.456,250.675,791.09z"/>
		<path fill="#FFFFFF" d="M271.898,792.148c-0.225-0.014-0.46-0.003-0.706,0.031c-0.245,0.035-0.485,0.091-0.724,0.157
			c-0.235,0.07-0.46,0.154-0.671,0.259c-0.212,0.104-0.391,0.212-0.542,0.33c0.065,0.004,0.13,0.009,0.195,0.013
			c0.592,0.038,1.119,0.144,1.576,0.314c0.461,0.165,0.845,0.381,1.148,0.643c0.303,0.265,0.53,0.567,0.679,0.913
			c0.148,0.345,0.212,0.711,0.19,1.099c-0.023,0.412-0.143,0.776-0.359,1.111c-0.215,0.332-0.502,0.616-0.859,0.851
			c-0.358,0.23-0.778,0.403-1.255,0.516c-0.477,0.109-0.994,0.147-1.551,0.11c-0.774-0.051-1.434-0.183-1.978-0.392
			c-0.545-0.204-0.985-0.485-1.321-0.829c-0.335-0.345-0.571-0.75-0.71-1.208c-0.142-0.466-0.19-0.973-0.147-1.53
			c0.046-0.607,0.291-1.185,0.728-1.741c0.436-0.554,0.988-1.031,1.66-1.441c0.672-0.406,1.426-0.716,2.263-0.94
			c0.838-0.218,1.683-0.303,2.538-0.251c0.952,0.057,1.878,0.233,2.781,0.532c0.902,0.296,1.705,0.694,2.408,1.192
			c0.702,0.497,1.261,1.089,1.674,1.773c0.413,0.68,0.606,1.442,0.571,2.276c-0.117,2.813-0.234,5.628-0.352,8.441
			c-0.003,0.088-0.022,0.226-0.05,0.402c-0.032,0.179-0.07,0.376-0.118,0.593c-0.048,0.222-0.099,0.446-0.153,0.678
			c-0.055,0.231-0.11,0.454-0.163,0.659c-0.055,0.207-0.1,0.389-0.14,0.54c-0.04,0.154-0.072,0.262-0.098,0.322
			c-1.381-0.06-2.763-0.126-4.144-0.198c0.036-0.06,0.104-0.222,0.201-0.486c0.097-0.267,0.203-0.574,0.318-0.937
			c0.11-0.359,0.214-0.729,0.307-1.115c0.091-0.386,0.143-0.723,0.157-1.014c0.142-2.797,0.284-5.593,0.426-8.39
			c0.022-0.45-0.083-0.869-0.315-1.26c-0.235-0.392-0.541-0.734-0.913-1.023c-0.375-0.29-0.787-0.523-1.241-0.7
			C272.754,792.273,272.317,792.174,271.898,792.148z M269.837,795.742c0.024-0.367-0.013-0.682-0.11-0.94
			c-0.098-0.255-0.232-0.388-0.405-0.399c-0.173-0.012-0.33,0.103-0.473,0.341c-0.14,0.243-0.223,0.55-0.248,0.918
			c-0.026,0.389,0.015,0.71,0.122,0.969c0.11,0.256,0.251,0.393,0.426,0.404c0.173,0.012,0.326-0.106,0.456-0.346
			C269.735,796.445,269.812,796.131,269.837,795.742z"/>
		<path fill="#FFFFFF" d="M294.596,805.492c-0.002,0.422-0.103,0.804-0.307,1.138c-0.204,0.339-0.483,0.627-0.841,0.865
			c-0.36,0.233-0.784,0.417-1.276,0.547c-0.495,0.129-1.023,0.189-1.593,0.181c-0.581-0.009-1.138-0.086-1.678-0.23
			c-0.539-0.145-1.015-0.36-1.425-0.648c-0.412-0.29-0.736-0.655-0.974-1.09c-0.242-0.435-0.353-0.947-0.338-1.534
			c0.084-3.318,0.168-6.637,0.253-9.956c0.021-0.392,0.092-0.721,0.211-0.992c0.121-0.271,0.292-0.514,0.51-0.732
			c0.222-0.21,0.493-0.417,0.814-0.608c0.324-0.19,0.696-0.402,1.118-0.636c-0.011,0-0.022,0-0.033,0
			c0.055-0.027,0.114-0.058,0.179-0.085c0.063-0.028,0.126-0.058,0.179-0.09c-0.005,0-0.01,0-0.015,0
			c0.065-0.038,0.141-0.082,0.235-0.129c0.092-0.049,0.188-0.097,0.283-0.144c0.13-0.069,0.266-0.142,0.407-0.217
			c0.141-0.079,0.272-0.174,0.399-0.281c0.124-0.108,0.225-0.232,0.302-0.377c0.077-0.145,0.116-0.304,0.119-0.485
			c0.003-0.19,0.043-0.307,0.117-0.357c-0.085,0.037-0.223,0.105-0.41,0.194c-0.189,0.094-0.397,0.192-0.623,0.299
			c-0.324,0.165-0.675,0.318-1.052,0.464c-0.377,0.141-0.839,0.206-1.385,0.193c-0.483-0.011-0.896-0.07-1.242-0.182
			c-0.345-0.108-0.642-0.272-0.885-0.495c-0.247-0.219-0.453-0.504-0.619-0.846c-0.165-0.345-0.317-0.76-0.451-1.247
			c-0.201-0.724-0.425-1.407-0.668-2.054c-0.246-0.647-0.528-1.273-0.851-1.88s-0.688-1.197-1.099-1.771
			c-0.409-0.574-0.874-1.153-1.395-1.729c0.653-0.624,1.304-1.25,1.951-1.878c0.82,0.68,1.513,1.376,2.083,2.089
			c0.57,0.712,1.065,1.423,1.481,2.139c0.417,0.717,0.771,1.423,1.06,2.124c0.29,0.701,0.561,1.372,0.813,2.015
			c0.02,0.055,0.038,0.109,0.061,0.17c0.02,0.059,0.038,0.131,0.057,0.209c0.03,0.131,0.059,0.268,0.088,0.406
			c0.028,0.143,0.053,0.28,0.071,0.408c0.02,0.129,0.025,0.245,0.017,0.337c-0.007,0.097-0.031,0.159-0.076,0.187
			c0.086-0.037,0.216-0.108,0.389-0.208c0.172-0.103,0.362-0.216,0.566-0.342c0.27-0.166,0.568-0.316,0.894-0.449
			c0.328-0.135,0.769-0.195,1.32-0.188c0.489,0.007,0.947,0.058,1.376,0.151c0.431,0.093,0.805,0.23,1.123,0.407
			c0.316,0.179,0.568,0.401,0.754,0.663c0.185,0.268,0.276,0.568,0.274,0.907c-0.001,0.32-0.083,0.621-0.245,0.892
			c-0.164,0.272-0.375,0.532-0.64,0.773c-0.265,0.244-0.564,0.475-0.9,0.695c-0.333,0.223-0.676,0.435-1.023,0.639
			c-0.228,0.14-0.451,0.282-0.666,0.431c-0.221,0.146-0.411,0.31-0.582,0.499c-0.173,0.188-0.308,0.405-0.415,0.651
			c-0.107,0.25-0.165,0.542-0.17,0.883c-0.041,2.505-0.082,5.01-0.123,7.516c0.212-0.026,0.449-0.039,0.712-0.035
			c1.234,0.019,2.172,0.274,2.818,0.769C294.278,803.929,294.602,804.613,294.596,805.492z M291.319,805.45
			c0.004-0.351-0.056-0.656-0.178-0.92c-0.124-0.26-0.275-0.393-0.45-0.396c-0.165-0.003-0.313,0.126-0.438,0.382
			c-0.125,0.26-0.192,0.563-0.198,0.914c-0.006,0.358,0.051,0.671,0.168,0.938c0.118,0.265,0.263,0.401,0.429,0.404
			c0.176,0.002,0.332-0.127,0.463-0.384C291.245,806.133,291.314,805.818,291.319,805.45z"/>
		<path fill="#FFFFFF" d="M305.817,801.188c-0.56,0.011-1.088,0.158-1.583,0.443c-0.494,0.284-0.838,0.7-1.028,1.251
			c0.253-0.074,0.507-0.132,0.767-0.178c0.256-0.043,0.512-0.064,0.766-0.069c0.531-0.009,1.032,0.049,1.518,0.169
			c0.482,0.128,0.907,0.306,1.277,0.541c0.368,0.235,0.666,0.521,0.894,0.856c0.222,0.333,0.338,0.698,0.349,1.1
			c0.011,0.41-0.074,0.787-0.26,1.129c-0.186,0.346-0.448,0.649-0.795,0.912c-0.344,0.265-0.754,0.472-1.231,0.62
			c-0.478,0.152-1.006,0.23-1.585,0.24c-0.769,0.014-1.499-0.05-2.187-0.19c-0.687-0.144-1.295-0.384-1.819-0.737
			c-0.527-0.35-0.944-0.811-1.255-1.388c-0.308-0.565-0.462-1.278-0.466-2.128c-0.004-0.808,0.202-1.495,0.615-2.063
			c0.416-0.565,0.954-1.03,1.619-1.39c0.662-0.361,1.416-0.625,2.256-0.801c0.84-0.173,1.683-0.27,2.537-0.287
			c0.926-0.02,1.714,0.074,2.359,0.284c0.646,0.205,1.195,0.49,1.65,0.853c0.455,0.358,0.844,0.776,1.162,1.256
			c0.318,0.48,0.617,0.978,0.903,1.499c-0.007,0-0.013,0.001-0.019,0.001c0.107,0.194,0.207,0.386,0.303,0.566
			c0.094,0.18,0.188,0.354,0.281,0.521c0.264,0.506,0.473,0.928,0.633,1.247c0.154,0.324,0.191,0.5,0.117,0.521
			c0.143-0.013,0.262-0.127,0.354-0.339c0.09-0.217,0.167-0.495,0.226-0.846c0.057-0.347,0.098-0.737,0.118-1.178
			c0.021-0.442,0.036-0.89,0.044-1.352c0.01-0.46,0.01-0.919,0-1.363c-0.016-0.45-0.029-0.854-0.045-1.214
			c0.006-0.127,0.009-0.256,0.004-0.371c-0.005-0.122-0.01-0.242-0.015-0.361c-0.036-0.909-0.126-1.679-0.265-2.308
			c-0.139-0.625-0.312-1.152-0.52-1.573c-0.205-0.425-0.438-0.753-0.693-0.994c-0.258-0.239-0.518-0.431-0.781-0.57
			c-0.267-0.14-0.58-0.26-0.944-0.357c-0.362-0.098-0.735-0.174-1.114-0.234c-0.381-0.061-0.75-0.102-1.109-0.127
			c-0.364-0.022-0.672-0.031-0.93-0.025c-0.294,0.008-0.555,0.015-0.792,0.027c-0.237,0.01-0.468,0.024-0.696,0.045
			c-0.223,0.019-0.452,0.048-0.682,0.085c-0.23,0.033-0.482,0.081-0.75,0.146c-0.182,0.046-0.394,0.1-0.637,0.162
			c-0.239,0.065-0.469,0.145-0.681,0.242c-0.214,0.1-0.394,0.222-0.536,0.376c-0.145,0.151-0.215,0.34-0.211,0.56
			c0,0.01,0,0.019,0,0.028c0.004,0.29,0.055,0.498,0.154,0.628c0.101,0.126,0.188,0.216,0.264,0.266
			c0.1,0.076,0.182,0.139,0.247,0.173c-0.494,0.598-0.991,1.195-1.489,1.791c-0.439-0.196-0.84-0.401-1.205-0.618
			c-0.366-0.217-0.682-0.444-0.941-0.68c-0.262-0.242-0.468-0.482-0.615-0.725c-0.147-0.244-0.221-0.491-0.222-0.739
			c-0.003-0.512,0.154-0.958,0.469-1.335c0.315-0.383,0.723-0.708,1.222-0.979c0.496-0.266,1.051-0.491,1.658-0.669
			c0.609-0.174,1.207-0.324,1.796-0.444c-0.006,0-0.012,0-0.018,0c0.217-0.042,0.479-0.082,0.796-0.12
			c0.314-0.034,0.646-0.069,0.986-0.102c0.344-0.032,0.678-0.058,1.004-0.075c0.326-0.016,0.601-0.029,0.827-0.035
			c0.458-0.012,0.983-0.004,1.565,0.018c0.586,0.021,1.175,0.074,1.77,0.152c0.592,0.08,1.154,0.194,1.693,0.342
			c0.535,0.142,0.982,0.327,1.334,0.554c0.767,0.496,1.397,1.034,1.892,1.619c0.491,0.579,0.883,1.185,1.175,1.803
			c0.293,0.623,0.498,1.259,0.616,1.912c0.118,0.654,0.195,1.296,0.226,1.925c0.045,0.895,0.066,1.766,0.063,2.599
			s-0.074,1.631-0.217,2.386c-0.097,0.554-0.245,1.064-0.456,1.532c-0.203,0.463-0.48,0.864-0.823,1.203
			c-0.342,0.341-0.76,0.61-1.249,0.813c-0.491,0.201-1.071,0.314-1.738,0.339c-0.714,0.027-1.306-0.026-1.768-0.16
			c-0.462-0.137-0.845-0.322-1.147-0.561c-0.303-0.241-0.551-0.525-0.74-0.85c-0.197-0.323-0.38-0.658-0.555-1.003
			c-0.096-0.174-0.186-0.354-0.273-0.527c-0.087-0.183-0.186-0.356-0.289-0.533c0.006,0,0.012,0,0.018-0.001
			c-0.082-0.129-0.16-0.254-0.234-0.376c-0.075-0.122-0.148-0.245-0.219-0.358c-0.195-0.336-0.384-0.653-0.561-0.95
			c-0.18-0.293-0.369-0.55-0.572-0.765c-0.205-0.211-0.434-0.384-0.689-0.508C306.439,801.243,306.146,801.182,305.817,801.188z
			 M303.637,795.463c0.057,0.049,0.079,0.072,0.066,0.073c-0.01,0-0.043-0.014-0.097-0.045
			C303.617,795.482,303.627,795.473,303.637,795.463z M305.503,805.408c-0.007-0.372-0.073-0.683-0.198-0.934
			c-0.129-0.254-0.285-0.379-0.473-0.375c-0.176,0.003-0.322,0.133-0.434,0.392c-0.111,0.255-0.164,0.568-0.158,0.939
			c0.006,0.368,0.068,0.679,0.189,0.932c0.12,0.25,0.272,0.374,0.449,0.371c0.188-0.003,0.342-0.133,0.461-0.387
			C305.456,806.09,305.51,805.776,305.503,805.408z"/>
		<path fill="#FFFFFF" d="M339.791,803.398c0.041,0.42-0.019,0.81-0.188,1.164c-0.168,0.359-0.415,0.673-0.746,0.947
			c-0.331,0.271-0.738,0.497-1.214,0.677c-0.479,0.181-0.999,0.296-1.566,0.347c-0.455,0.041-0.902,0.04-1.335-0.004
			c-0.437-0.041-0.847-0.131-1.229-0.272c-0.378-0.135-0.725-0.324-1.032-0.551c-0.31-0.231-0.563-0.512-0.756-0.848
			c-0.172,0.646-0.59,1.177-1.256,1.594c-0.668,0.415-1.489,0.659-2.456,0.728c-0.581,0.041-1.143,0.013-1.693-0.086
			c-0.549-0.098-1.038-0.272-1.475-0.524c-0.436-0.253-0.791-0.59-1.065-1.002c-0.278-0.412-0.433-0.914-0.469-1.499
			c-0.196-3.244-0.393-6.488-0.589-9.732c-0.035-0.58,0.017-1.129,0.15-1.652c0.137-0.525,0.377-0.988,0.723-1.389
			c0.348-0.401,0.805-0.732,1.373-0.99s1.263-0.415,2.089-0.474c0.225-0.017,0.472-0.02,0.74-0.012
			c0.269,0.017,0.543,0.034,0.818,0.067c0.278,0.04,0.554,0.08,0.826,0.126c0.274,0.049,0.529,0.107,0.772,0.167
			c-0.178,0.75-0.357,1.501-0.538,2.251c-0.366-0.133-0.681-0.24-0.94-0.319c-0.262-0.084-0.486-0.146-0.679-0.192
			c-0.191-0.042-0.36-0.075-0.502-0.09c-0.14-0.015-0.271-0.017-0.388-0.008c-0.14,0.01-0.257,0.071-0.344,0.187
			c-0.09,0.117-0.16,0.268-0.212,0.453c-0.05,0.185-0.084,0.386-0.102,0.605c-0.018,0.222-0.02,0.439-0.005,0.647
			c0.186,2.669,0.371,5.338,0.557,8.006c0.206-0.043,0.442-0.076,0.706-0.096c0.824-0.059,1.531,0.007,2.122,0.191
			c0.588,0.187,1.044,0.478,1.364,0.871c-0.235-2.966-0.47-5.932-0.705-8.897c-0.046-0.579-0.009-1.129,0.119-1.654
			c0.126-0.528,0.358-0.994,0.698-1.402c0.336-0.408,0.79-0.746,1.352-1.015c0.565-0.27,1.257-0.439,2.08-0.513
			c0.226-0.021,0.47-0.028,0.739-0.025c0.271,0.012,0.546,0.023,0.822,0.052c0.276,0.035,0.554,0.069,0.829,0.11
			c0.271,0.045,0.531,0.099,0.771,0.153c-0.163,0.753-0.327,1.507-0.493,2.26c-0.37-0.125-0.688-0.227-0.946-0.301
			c-0.263-0.079-0.489-0.138-0.685-0.18c-0.193-0.038-0.359-0.069-0.501-0.081c-0.143-0.013-0.273-0.012-0.391-0.001
			c-0.141,0.013-0.252,0.077-0.338,0.193c-0.088,0.119-0.155,0.271-0.204,0.456c-0.047,0.186-0.079,0.389-0.093,0.608
			c-0.013,0.223-0.011,0.439,0.008,0.647c0.234,2.665,0.47,5.33,0.705,7.994c0.207-0.047,0.443-0.085,0.704-0.108
			c1.231-0.111,2.191,0.046,2.89,0.47C339.312,801.877,339.704,802.524,339.791,803.398z M328.515,804.354
			c-0.025-0.35-0.114-0.648-0.257-0.901c-0.147-0.248-0.308-0.367-0.484-0.354c-0.165,0.011-0.299,0.151-0.402,0.418
			c-0.104,0.27-0.143,0.578-0.118,0.928c0.024,0.357,0.105,0.663,0.248,0.919c0.14,0.254,0.293,0.378,0.459,0.366
			c0.178-0.013,0.321-0.155,0.432-0.422C328.497,805.041,328.541,804.721,328.515,804.354z M336.524,803.698
			c-0.032-0.35-0.121-0.647-0.273-0.896c-0.149-0.246-0.313-0.361-0.49-0.346c-0.163,0.015-0.295,0.156-0.394,0.425
			c-0.1,0.271-0.134,0.581-0.104,0.93c0.031,0.357,0.12,0.662,0.268,0.915c0.145,0.251,0.301,0.372,0.466,0.357
			c0.179-0.016,0.318-0.16,0.422-0.431C336.524,804.385,336.558,804.064,336.524,803.698z"/>
		<path fill="#FFFFFF" d="M363.166,800.158c0.029,0.189,0.046,0.398,0.056,0.631c0.007,0.231,0,0.473-0.017,0.722
			c-0.017,0.25-0.053,0.503-0.104,0.758c-0.051,0.255-0.126,0.498-0.227,0.726c-1.343,0.204-2.686,0.402-4.029,0.595
			c0.105-0.198,0.196-0.421,0.266-0.667c0.072-0.25,0.127-0.509,0.157-0.788c0.033-0.277,0.047-0.562,0.046-0.855
			c-0.002-0.292-0.025-0.575-0.066-0.853c-0.475-3.275-0.949-6.551-1.424-9.827c-0.029-0.197-0.061-0.403-0.096-0.62
			c-0.039-0.216-0.085-0.42-0.139-0.609c-0.055-0.185-0.116-0.35-0.184-0.477c-0.069-0.134-0.15-0.219-0.242-0.253
			c0.037,0.031,0.016,0.105-0.067,0.222c-0.08,0.111-0.176,0.236-0.289,0.37c-0.108,0.142-0.236,0.283-0.379,0.44
			c-0.14,0.16-0.311,0.304-0.513,0.443c-0.2,0.139-0.437,0.266-0.716,0.375c-0.28,0.107-0.614,0.19-1.002,0.242
			c-0.118,0.017-0.235,0.032-0.353,0.049c0.136,0.435,0.24,0.863,0.313,1.285c0.074,0.423,0.135,0.807,0.183,1.155
			c0.283,2.087,0.566,4.174,0.85,6.261c0.105,0.773,0.04,1.482-0.196,2.132c-0.238,0.643-0.619,1.208-1.142,1.69
			c-0.52,0.484-1.173,0.882-1.953,1.194c-0.782,0.316-1.664,0.534-2.638,0.651c-1.09,0.131-2.078,0.167-2.967,0.104
			c-0.891-0.061-1.658-0.242-2.309-0.549c-0.651-0.304-1.173-0.752-1.568-1.332c-0.396-0.582-0.64-1.329-0.734-2.24
			c-0.049-0.477-0.025-0.969,0.076-1.479c0.104-0.506,0.253-1.02,0.444-1.541c0.194-0.522,0.413-1.05,0.659-1.57
			c0.245-0.525,0.488-1.036,0.729-1.535c-0.005,0.001-0.01,0.001-0.015,0.002c0.098-0.2,0.191-0.396,0.281-0.587
			c0.087-0.192,0.176-0.377,0.265-0.561c0.189-0.021,0.379-0.042,0.568-0.063c-0.443,0.042-0.898,0.03-1.357-0.035
			c-0.461-0.065-0.883-0.186-1.261-0.361c-0.376-0.174-0.698-0.407-0.958-0.697c-0.257-0.29-0.406-0.642-0.45-1.061
			c-0.044-0.425,0.005-0.832,0.147-1.221c0.145-0.386,0.373-0.726,0.688-1.027c0.313-0.3,0.704-0.548,1.168-0.748
			c0.463-0.2,0.997-0.339,1.605-0.407c0.565-0.064,1.102-0.058,1.605,0.019c0.509,0.076,0.955,0.219,1.342,0.422
			c0.389,0.206,0.708,0.475,0.96,0.811c0.256,0.336,0.409,0.735,0.465,1.189c0.032,0.267,0.009,0.578-0.065,0.935
			c-0.076,0.354-0.189,0.739-0.336,1.143c-0.147,0.406-0.32,0.835-0.52,1.282c-0.197,0.455-0.406,0.916-0.625,1.384
			c-0.21,0.448-0.42,0.897-0.629,1.353c-0.204,0.455-0.382,0.914-0.528,1.366c-0.149,0.453-0.257,0.908-0.334,1.366
			c-0.077,0.453-0.088,0.904-0.038,1.352c0.063,0.555,0.195,0.996,0.402,1.326c0.203,0.329,0.457,0.575,0.763,0.742
			c0.303,0.165,0.645,0.261,1.023,0.287c0.378,0.023,0.775,0.013,1.197-0.038c0.343-0.042,0.668-0.149,0.977-0.328
			c0.308-0.178,0.575-0.406,0.805-0.685c0.229-0.281,0.397-0.61,0.505-0.977c0.111-0.374,0.139-0.771,0.085-1.2
			c-0.334-2.634-0.667-5.268-1-7.901c-0.084-0.655-0.252-1.257-0.509-1.811c-0.254-0.549-0.635-1.022-1.137-1.413
			c0.856-0.749,1.708-1.501,2.555-2.255c0.242,0.293,0.485,0.572,0.728,0.841c0.24,0.271,0.471,0.507,0.687,0.711
			c0.22,0.199,0.418,0.359,0.603,0.478c0.184,0.118,0.34,0.164,0.468,0.146c0.026-0.004,0.054-0.007,0.08-0.011
			c-0.066-0.009-0.055-0.085,0.035-0.222c0.091-0.138,0.205-0.304,0.34-0.493c0.092-0.135,0.193-0.27,0.311-0.415
			c0.116-0.142,0.267-0.272,0.448-0.402c0.183-0.125,0.411-0.238,0.686-0.343c0.272-0.106,0.619-0.188,1.045-0.248
			c1.425-0.204,2.541-0.084,3.356,0.36c0.813,0.45,1.306,1.223,1.477,2.328C362.054,792.946,362.61,796.552,363.166,800.158z
			 M345.037,790.945c-0.042-0.37-0.135-0.669-0.282-0.906c-0.147-0.231-0.31-0.339-0.49-0.318c-0.175,0.02-0.3,0.159-0.388,0.418
			c-0.084,0.262-0.104,0.574-0.063,0.944c0.043,0.387,0.133,0.697,0.273,0.931c0.144,0.238,0.297,0.345,0.473,0.325
			c0.183-0.021,0.317-0.16,0.408-0.425C345.061,791.655,345.081,791.332,345.037,790.945z"/>
		<path fill="#FFFFFF" d="M353.018,776.261c-0.293-2.126-0.588-4.253-0.881-6.379c1.065-0.147,2.131-0.299,3.196-0.454
			c0.311,2.123,0.621,4.247,0.933,6.371C355.184,775.957,354.101,776.111,353.018,776.261z"/>
		<path fill="#FFFFFF" d="M366.997,804.755c0.416,0.177,0.843,0.322,1.278,0.438c0.434,0.115,0.859,0.198,1.276,0.259
			c0.414,0.057,0.813,0.089,1.198,0.092c0.384,0.008,0.731-0.018,1.045-0.071c0.354-0.062,0.715-0.158,1.075-0.293
			c0.357-0.131,0.687-0.309,0.979-0.521c0.351-0.231,0.664-0.511,0.942-0.838c0.28-0.323,0.51-0.678,0.691-1.067
			c0.179-0.388,0.295-0.811,0.35-1.265c0.053-0.456,0.032-0.937-0.061-1.439c-0.676-3.683-1.353-7.364-2.028-11.046
			c-0.082-0.442-0.281-0.826-0.6-1.153s-0.695-0.59-1.129-0.791c-0.431-0.204-0.89-0.338-1.373-0.403
			c-0.484-0.065-0.934-0.062-1.347,0.01c-0.224,0.039-0.454,0.104-0.69,0.195c-0.237,0.091-0.461,0.202-0.669,0.326
			c-0.208,0.126-0.399,0.262-0.579,0.41c-0.179,0.15-0.328,0.296-0.443,0.445c0.058-0.01,0.116-0.02,0.174-0.029
			c0.589-0.099,1.127-0.119,1.615-0.059c0.486,0.055,0.909,0.177,1.267,0.361c0.358,0.188,0.65,0.43,0.875,0.731
			c0.223,0.302,0.369,0.643,0.437,1.025c0.072,0.406,0.039,0.789-0.093,1.164c-0.133,0.372-0.35,0.716-0.645,1.026
			c-0.296,0.307-0.667,0.571-1.104,0.791c-0.442,0.217-0.937,0.372-1.49,0.466c-0.766,0.128-1.441,0.152-2.022,0.075
			c-0.575-0.074-1.07-0.246-1.475-0.504c-0.407-0.259-0.732-0.598-0.978-1.011c-0.241-0.421-0.404-0.903-0.491-1.455
			c-0.095-0.603,0.008-1.221,0.307-1.862c0.299-0.64,0.729-1.231,1.287-1.785c0.563-0.551,1.228-1.029,1.989-1.445
			c0.765-0.41,1.568-0.688,2.417-0.836c0.941-0.163,1.89-0.207,2.839-0.122c0.949,0.079,1.826,0.285,2.628,0.61
			c0.803,0.328,1.484,0.776,2.046,1.347c0.563,0.565,0.925,1.264,1.083,2.083c0.678,3.511,1.355,7.021,2.033,10.53
			c0.15,0.775,0.145,1.505-0.016,2.192c-0.158,0.686-0.426,1.328-0.79,1.927c-0.369,0.6-0.825,1.146-1.363,1.649
			c-0.542,0.5-1.121,0.948-1.738,1.344c-0.372,0.244-0.84,0.45-1.418,0.628c-0.571,0.177-1.209,0.328-1.914,0.45
			c-0.559,0.097-1.126,0.165-1.697,0.201c-0.574,0.035-1.133,0.042-1.67,0.025c-0.536-0.018-1.04-0.065-1.517-0.139
			c-0.476-0.074-0.896-0.183-1.261-0.314C366.486,806.324,366.742,805.54,366.997,804.755z M368.115,790.651
			c-0.062-0.363-0.171-0.661-0.325-0.89c-0.154-0.227-0.316-0.324-0.488-0.296c-0.172,0.029-0.299,0.177-0.38,0.441
			c-0.084,0.269-0.093,0.587-0.032,0.949c0.064,0.385,0.177,0.689,0.344,0.915c0.164,0.225,0.332,0.325,0.505,0.296
			c0.175-0.029,0.295-0.179,0.367-0.442C368.176,791.359,368.181,791.035,368.115,790.651z"/>
		<path fill="#FFFFFF" d="M397.194,783.93c0.158,0.65,0.106,1.289-0.158,1.918c-0.263,0.632-0.672,1.243-1.228,1.841
			c-0.553,0.597-1.217,1.18-1.991,1.735c-0.776,0.561-1.589,1.097-2.438,1.603c-0.459,0.277-0.922,0.544-1.393,0.8
			c-0.47,0.259-0.93,0.506-1.373,0.748c-0.586,0.319-1.138,0.626-1.656,0.914c-0.513,0.286-0.963,0.569-1.338,0.852
			c-0.38,0.277-0.668,0.547-0.86,0.812c-0.195,0.265-0.266,0.528-0.211,0.795c0.071,0.343,0.232,0.585,0.483,0.725
			c0.249,0.144,0.526,0.228,0.829,0.254c0.304,0.031,0.603,0.027,0.9-0.019c0.303-0.042,0.529-0.083,0.695-0.118
			c0.503-0.107,0.979-0.321,1.428-0.65c0.451-0.325,0.89-0.675,1.321-1.046c0.212-0.18,0.427-0.357,0.651-0.534
			c0.223-0.178,0.47-0.345,0.742-0.503c0.272-0.156,0.575-0.307,0.908-0.443c0.336-0.135,0.719-0.255,1.15-0.354
			c0.315-0.072,0.675-0.136,1.079-0.193c0.404-0.057,0.816-0.091,1.24-0.107c0.427-0.01,0.845,0.005,1.256,0.052
			c0.41,0.046,0.792,0.136,1.139,0.268c0.347,0.131,0.646,0.314,0.892,0.547c0.247,0.235,0.411,0.529,0.499,0.892
			c0.005,0.017,0.011,0.043,0.021,0.085c0.009,0.038,0.015,0.103,0.013,0.197c0.006-0.002,0.012-0.003,0.018-0.005
			c0.014,0.1,0.021,0.196,0.028,0.292c0.005,0.099,0.014,0.19,0.024,0.279c0.026,0.354,0.062,0.687,0.103,0.998
			c0.04,0.314,0.097,0.613,0.165,0.893c0.127,0.527,0.291,0.991,0.492,1.385c0.199,0.4,0.471,0.724,0.816,0.983
			c-0.88,0.65-1.764,1.298-2.65,1.942c-0.761-0.495-1.329-1.032-1.705-1.603c-0.38-0.577-0.637-1.16-0.774-1.753
			c-0.083-0.358-0.151-0.75-0.203-1.168c-0.051-0.416-0.086-0.844-0.107-1.279c-0.006,0.001-0.012,0.003-0.018,0.004
			c-0.005-0.021-0.005-0.042-0.004-0.062c0-0.021-0.001-0.039-0.007-0.063c-0.074-0.318-0.28-0.535-0.615-0.646
			c-0.336-0.111-0.782-0.102-1.337,0.025c-0.195,0.044-0.433,0.182-0.705,0.403c-0.276,0.227-0.579,0.495-0.909,0.809
			c-0.222,0.201-0.458,0.407-0.716,0.617c-0.257,0.209-0.552,0.415-0.889,0.619c-0.331,0.201-0.724,0.392-1.173,0.568
			c-0.447,0.181-0.975,0.335-1.578,0.463c-0.396,0.084-0.838,0.164-1.334,0.238c-0.494,0.072-0.995,0.121-1.508,0.145
			c-0.508,0.024-1.014,0.005-1.511-0.053c-0.499-0.055-0.949-0.169-1.361-0.345c-0.407-0.171-0.761-0.414-1.051-0.729
			c-0.289-0.314-0.479-0.717-0.575-1.207c-0.11-0.56,0.022-1.101,0.399-1.627c0.374-0.528,0.901-1.043,1.576-1.548
			c0.675-0.501,1.459-1.002,2.347-1.499c0.885-0.496,1.792-1,2.721-1.505c0.353-0.189,0.696-0.38,1.035-0.57
			c0.333-0.189,0.67-0.387,1.009-0.585c0.582-0.332,1.115-0.674,1.607-1.018c0.489-0.346,0.902-0.709,1.241-1.093
			c0.342-0.381,0.587-0.778,0.736-1.191c0.152-0.413,0.172-0.854,0.063-1.319c-0.093-0.4-0.264-0.729-0.515-0.982
			c-0.248-0.255-0.543-0.458-0.887-0.608c-0.339-0.15-0.712-0.253-1.111-0.304c-0.4-0.055-0.8-0.081-1.198-0.074
			c-0.401,0-0.783,0.023-1.152,0.07c-0.366,0.048-0.68,0.1-0.945,0.158c-0.244,0.054-0.528,0.123-0.852,0.207
			c-0.325,0.087-0.67,0.197-1.034,0.323c-0.363,0.133-0.743,0.282-1.133,0.46c-0.387,0.173-0.767,0.382-1.137,0.623
			c-0.069,0.014-0.138,0.028-0.207,0.043c0.485-0.052,0.936-0.036,1.347,0.042c0.412,0.083,0.773,0.212,1.089,0.383
			c0.314,0.173,0.574,0.384,0.779,0.637c0.204,0.253,0.34,0.528,0.405,0.833c0.184,0.849-0.013,1.584-0.588,2.215
			c-0.577,0.632-1.618,1.106-3.124,1.416c-0.439,0.09-0.889,0.113-1.345,0.072c-0.456-0.037-0.878-0.156-1.27-0.349
			c-0.39-0.189-0.731-0.461-1.022-0.804c-0.29-0.347-0.484-0.781-0.588-1.31c-0.101-0.511-0.067-1.008,0.102-1.495
			c0.169-0.485,0.441-0.951,0.815-1.395c0.379-0.44,0.838-0.86,1.385-1.262c0.546-0.401,1.147-0.768,1.804-1.1
			c0.658-0.334,1.351-0.626,2.076-0.885c0.727-0.258,1.464-0.469,2.21-0.634c0.609-0.135,1.255-0.246,1.936-0.341
			c0.682-0.091,1.36-0.143,2.034-0.148c0.673-0.006,1.324,0.039,1.959,0.137c0.633,0.099,1.212,0.273,1.743,0.533
			c0.528,0.259,0.986,0.604,1.364,1.037C396.766,782.722,397.034,783.269,397.194,783.93z M383.839,787.312
			c-0.073-0.35-0.199-0.639-0.368-0.87c-0.17-0.23-0.345-0.327-0.525-0.29c-0.171,0.035-0.293,0.194-0.368,0.475
			c-0.075,0.282-0.076,0.597-0.004,0.947c0.073,0.354,0.198,0.646,0.378,0.869c0.181,0.229,0.357,0.328,0.529,0.292
			c0.183-0.037,0.305-0.197,0.368-0.478C383.914,787.983,383.912,787.665,383.839,787.312z"/>
		<path fill="#FFFFFF" d="M405.485,778.728c-0.217,0.059-0.438,0.143-0.662,0.253c-0.224,0.11-0.436,0.239-0.642,0.378
			c-0.203,0.142-0.391,0.292-0.563,0.458c-0.171,0.167-0.307,0.325-0.412,0.485c0.063-0.017,0.126-0.033,0.189-0.05
			c0.58-0.151,1.114-0.218,1.608-0.201c0.493,0.011,0.926,0.094,1.3,0.246c0.372,0.154,0.683,0.371,0.938,0.651
			c0.249,0.281,0.428,0.606,0.528,0.982c0.107,0.397,0.108,0.782,0.006,1.169c-0.101,0.383-0.284,0.743-0.553,1.079
			c-0.271,0.332-0.616,0.63-1.039,0.887c-0.421,0.255-0.903,0.455-1.447,0.597c-0.757,0.197-1.432,0.281-2.017,0.256
			c-0.584-0.022-1.092-0.15-1.521-0.371s-0.784-0.529-1.063-0.92c-0.28-0.398-0.485-0.863-0.62-1.406
			c-0.147-0.592-0.097-1.218,0.144-1.883c0.243-0.663,0.621-1.291,1.134-1.894c0.514-0.599,1.136-1.13,1.866-1.609
			c0.729-0.471,1.513-0.819,2.347-1.042c0.93-0.247,1.869-0.373,2.826-0.375c0.959-0.006,1.852,0.118,2.682,0.367
			c0.829,0.249,1.55,0.634,2.162,1.152c0.612,0.514,1.036,1.176,1.266,1.979c0.775,2.707,1.551,5.415,2.326,8.122
			c0.024,0.085,0.05,0.221,0.081,0.397c0.025,0.18,0.052,0.379,0.074,0.599c0.021,0.228,0.044,0.456,0.064,0.692
			c0.022,0.238,0.041,0.466,0.056,0.678c0.012,0.214,0.027,0.4,0.036,0.557c0.01,0.159,0.013,0.272,0.006,0.337
			c-1.342,0.382-2.685,0.758-4.029,1.127c0.018-0.067,0.031-0.243,0.04-0.525c0.009-0.284,0.012-0.607,0.007-0.988
			c-0.006-0.377-0.023-0.762-0.057-1.157c-0.036-0.394-0.091-0.731-0.169-1.012c-0.746-2.698-1.492-5.397-2.239-8.097
			c-0.119-0.434-0.353-0.798-0.701-1.095c-0.347-0.298-0.747-0.526-1.193-0.683c-0.449-0.156-0.92-0.246-1.407-0.271
			C406.346,778.574,405.896,778.618,405.485,778.728z M404.65,782.79c-0.093-0.356-0.228-0.644-0.402-0.857
			c-0.174-0.211-0.345-0.295-0.514-0.251c-0.168,0.044-0.282,0.201-0.343,0.474c-0.057,0.275-0.041,0.593,0.052,0.949
			c0.098,0.377,0.239,0.669,0.423,0.881c0.186,0.208,0.364,0.293,0.532,0.249c0.171-0.044,0.278-0.204,0.328-0.473
			C404.774,783.49,404.75,783.168,404.65,782.79z"/>
		<path fill="#FFFFFF" d="M421.986,784.823c0.286-0.283,0.624-0.541,1.012-0.771c0.392-0.227,0.81-0.41,1.258-0.549
			c0.51-0.158,1.012-0.229,1.506-0.217c0.496,0.012,0.95,0.088,1.361,0.232c0.415,0.142,0.771,0.343,1.064,0.606
			c0.294,0.26,0.496,0.569,0.607,0.921c0.122,0.382,0.128,0.762,0.016,1.147c-0.113,0.388-0.315,0.757-0.607,1.104
			c-0.29,0.349-0.656,0.664-1.095,0.942c-0.438,0.277-0.922,0.499-1.451,0.663c-0.938,0.289-1.818,0.408-2.637,0.362
			c-0.818-0.045-1.552-0.222-2.198-0.528c-0.65-0.306-1.198-0.728-1.649-1.259c-0.456-0.535-0.791-1.146-1.003-1.831
			c-0.554-1.893-1.108-3.785-1.662-5.677c-0.182-0.623-0.212-1.244-0.088-1.864c0.118-0.617,0.35-1.215,0.686-1.798
			c0.341-0.577,0.765-1.125,1.279-1.646c0.514-0.521,1.071-0.997,1.674-1.434c0.606-0.435,1.236-0.822,1.897-1.158
			c0.662-0.336,1.306-0.605,1.938-0.807c0.69-0.219,1.407-0.396,2.15-0.532c0.742-0.133,1.469-0.21,2.185-0.226
			c0.718-0.012,1.412,0.036,2.089,0.155c0.675,0.113,1.297,0.315,1.864,0.595c0.568,0.285,1.067,0.654,1.496,1.113
			c0.429,0.464,0.76,1.03,0.993,1.712c0.857,2.508,1.715,5.016,2.573,7.523c0.081,0.237,0.119,0.494,0.111,0.77
			c-0.004,0.279-0.036,0.559-0.093,0.847c-0.056,0.29-0.129,0.572-0.221,0.85c-0.09,0.277-0.173,0.537-0.245,0.771
			c-0.016,0.028-0.022,0.056-0.026,0.087c-0.002,0.035-0.009,0.063-0.025,0.091c-1.272,0.431-2.546,0.854-3.821,1.272
			c0.146-0.313,0.283-0.604,0.409-0.868c0.126-0.269,0.217-0.538,0.272-0.818c0.058-0.276,0.076-0.572,0.05-0.893
			c-0.02-0.317-0.102-0.686-0.24-1.102c-0.745-2.246-1.49-4.491-2.236-6.737c-0.279-0.843-0.663-1.496-1.153-1.96
			c-0.488-0.465-1.037-0.787-1.647-0.964c-0.607-0.181-1.257-0.237-1.939-0.174s-1.361,0.203-2.036,0.417
			c-0.612,0.194-1.208,0.486-1.787,0.878c-0.58,0.389-1.073,0.857-1.481,1.396c-0.412,0.546-0.704,1.149-0.874,1.809
			c-0.168,0.664-0.144,1.362,0.079,2.099c0.467,1.544,0.935,3.088,1.401,4.632C421.822,784.28,421.904,784.552,421.986,784.823z
			 M425.623,785.997c-0.108-0.352-0.259-0.635-0.453-0.85c-0.196-0.206-0.383-0.284-0.564-0.229c-0.172,0.053-0.274,0.222-0.312,0.5
			c-0.034,0.285,0.003,0.604,0.111,0.955c0.106,0.344,0.251,0.624,0.445,0.829c0.191,0.204,0.369,0.283,0.532,0.233
			c0.183-0.057,0.293-0.226,0.34-0.502C425.766,786.654,425.73,786.341,425.623,785.997z"/>
		<path fill="#FFFFFF" d="M444.836,775.07c-0.533,0.195-0.99,0.509-1.374,0.941c-0.382,0.432-0.577,0.939-0.581,1.523
			c0.219-0.153,0.445-0.292,0.678-0.421c0.234-0.126,0.474-0.231,0.713-0.318c0.506-0.185,1.008-0.296,1.51-0.342
			c0.505-0.039,0.97-0.011,1.402,0.09c0.432,0.101,0.811,0.272,1.133,0.516c0.324,0.24,0.557,0.547,0.697,0.923
			c0.144,0.385,0.185,0.769,0.114,1.154c-0.064,0.388-0.22,0.763-0.464,1.125c-0.247,0.364-0.573,0.696-0.983,0.994
			c-0.406,0.301-0.888,0.549-1.44,0.75c-0.735,0.268-1.457,0.449-2.159,0.541c-0.708,0.092-1.368,0.064-1.988-0.096
			c-0.618-0.157-1.167-0.456-1.65-0.9c-0.479-0.434-0.858-1.057-1.139-1.859c-0.266-0.762-0.294-1.479-0.078-2.154
			c0.211-0.671,0.576-1.288,1.097-1.847c0.521-0.561,1.156-1.059,1.904-1.502c0.75-0.44,1.53-0.812,2.339-1.108
			c0.887-0.326,1.675-0.498,2.359-0.512c0.688-0.02,1.308,0.068,1.864,0.26c0.554,0.188,1.062,0.456,1.522,0.804
			c0.461,0.35,0.912,0.72,1.354,1.119c-0.006,0.002-0.011,0.004-0.016,0.006c0.164,0.148,0.321,0.298,0.47,0.438
			c0.152,0.138,0.301,0.271,0.445,0.397c0.414,0.394,0.755,0.722,1.01,0.972c0.254,0.256,0.349,0.408,0.282,0.453
			c0.135-0.06,0.21-0.207,0.23-0.438c0.019-0.235-0.001-0.523-0.059-0.874c-0.056-0.347-0.146-0.73-0.266-1.154
			c-0.126-0.425-0.256-0.853-0.397-1.292c-0.14-0.439-0.292-0.872-0.448-1.288c-0.158-0.421-0.303-0.799-0.434-1.135
			c-0.036-0.121-0.075-0.243-0.117-0.353c-0.045-0.112-0.088-0.226-0.132-0.336c-0.33-0.849-0.666-1.546-1.001-2.097
			c-0.339-0.543-0.676-0.985-1.01-1.315c-0.337-0.334-0.665-0.567-0.991-0.71c-0.322-0.142-0.638-0.235-0.937-0.28
			s-0.641-0.054-1.022-0.025c-0.383,0.028-0.765,0.079-1.146,0.147c-0.383,0.068-0.751,0.15-1.106,0.247
			c-0.354,0.098-0.658,0.192-0.902,0.283c-0.276,0.104-0.526,0.196-0.751,0.287c-0.223,0.087-0.439,0.177-0.65,0.271
			c-0.21,0.092-0.419,0.195-0.628,0.306c-0.211,0.108-0.436,0.235-0.674,0.386c-0.159,0.104-0.344,0.225-0.555,0.363
			c-0.212,0.142-0.404,0.291-0.578,0.455c-0.171,0.164-0.305,0.339-0.393,0.532c-0.089,0.191-0.095,0.393-0.021,0.599
			c0.003,0.01,0.007,0.019,0.01,0.027c0.098,0.272,0.215,0.453,0.353,0.543c0.136,0.085,0.249,0.142,0.34,0.164
			c0.118,0.038,0.219,0.071,0.292,0.082c-0.28,0.729-0.563,1.457-0.849,2.186c-0.481-0.043-0.934-0.104-1.354-0.188
			c-0.422-0.083-0.798-0.196-1.125-0.331c-0.329-0.144-0.602-0.304-0.821-0.484c-0.224-0.182-0.372-0.393-0.453-0.626
			c-0.169-0.482-0.165-0.956,0.017-1.417c0.177-0.466,0.462-0.908,0.852-1.327c0.392-0.417,0.848-0.812,1.375-1.181
			c0.525-0.364,1.052-0.705,1.578-1.014c-0.006,0.003-0.011,0.004-0.017,0.006c0.191-0.109,0.431-0.234,0.72-0.374
			c0.295-0.139,0.599-0.28,0.916-0.423c0.318-0.144,0.631-0.278,0.938-0.402c0.309-0.122,0.569-0.227,0.783-0.307
			c0.438-0.164,0.942-0.329,1.511-0.502c0.567-0.174,1.15-0.318,1.746-0.44c0.595-0.12,1.176-0.2,1.74-0.239
			c0.561-0.042,1.049-0.016,1.463,0.082c0.896,0.216,1.677,0.516,2.339,0.905c0.662,0.386,1.237,0.827,1.719,1.313
			c0.479,0.495,0.889,1.026,1.214,1.604c0.325,0.579,0.608,1.161,0.843,1.745c0.333,0.831,0.635,1.649,0.9,2.438
			c0.269,0.789,0.461,1.566,0.565,2.329c0.089,0.555,0.108,1.09,0.063,1.599c-0.049,0.507-0.182,0.978-0.404,1.412
			c-0.216,0.436-0.531,0.831-0.937,1.184c-0.405,0.354-0.925,0.65-1.563,0.898c-0.677,0.262-1.259,0.405-1.745,0.432
			c-0.488,0.023-0.916-0.025-1.287-0.149c-0.367-0.129-0.696-0.316-0.987-0.559c-0.291-0.241-0.578-0.497-0.858-0.765
			c-0.147-0.134-0.293-0.273-0.433-0.409c-0.144-0.144-0.291-0.277-0.45-0.409c0.005-0.002,0.01-0.004,0.015-0.006
			c-0.119-0.096-0.237-0.187-0.347-0.278c-0.111-0.091-0.222-0.182-0.323-0.269c-0.3-0.251-0.581-0.489-0.85-0.712
			c-0.265-0.218-0.534-0.397-0.798-0.533c-0.263-0.133-0.541-0.22-0.824-0.254C445.45,774.916,445.15,774.955,444.836,775.07z
			 M440.886,770.374c0.067,0.028,0.099,0.044,0.088,0.048c-0.012,0.004-0.045,0.002-0.109-0.01
			C440.871,770.399,440.879,770.387,440.886,770.374z M445.904,779.166c-0.127-0.35-0.291-0.621-0.493-0.818
			c-0.203-0.198-0.395-0.265-0.573-0.199c-0.171,0.063-0.268,0.233-0.291,0.514c-0.024,0.279,0.025,0.593,0.152,0.942
			c0.125,0.347,0.288,0.618,0.485,0.817c0.197,0.197,0.382,0.266,0.554,0.202c0.181-0.065,0.285-0.239,0.314-0.518
			C446.081,779.825,446.031,779.512,445.904,779.166z"/>
		<path fill="#FFFFFF" d="M462.25,759.169c-0.211,0.09-0.42,0.206-0.629,0.349s-0.402,0.302-0.59,0.469
			c-0.184,0.17-0.35,0.347-0.498,0.537c-0.147,0.19-0.262,0.367-0.344,0.54c0.061-0.025,0.121-0.051,0.182-0.076
			c0.559-0.234,1.086-0.38,1.58-0.436c0.495-0.063,0.94-0.043,1.336,0.053c0.395,0.099,0.737,0.267,1.028,0.508
			c0.289,0.242,0.512,0.539,0.666,0.896c0.162,0.379,0.217,0.76,0.168,1.158c-0.047,0.395-0.181,0.778-0.401,1.15
			c-0.227,0.369-0.53,0.715-0.916,1.032c-0.386,0.313-0.841,0.584-1.364,0.804c-0.729,0.306-1.39,0.487-1.981,0.548
			c-0.589,0.064-1.113,0.012-1.574-0.144c-0.461-0.156-0.857-0.41-1.19-0.757c-0.336-0.353-0.606-0.784-0.817-1.303
			c-0.229-0.564-0.266-1.191-0.115-1.887c0.147-0.693,0.438-1.37,0.866-2.042c0.432-0.668,0.98-1.287,1.642-1.868
			c0.665-0.574,1.4-1.034,2.202-1.377c0.896-0.382,1.819-0.645,2.778-0.788c0.957-0.146,1.869-0.156,2.731-0.03
			c0.865,0.124,1.643,0.398,2.327,0.822c0.683,0.419,1.201,1.013,1.543,1.774c1.153,2.568,2.307,5.138,3.46,7.707
			c0.036,0.08,0.078,0.213,0.134,0.383c0.052,0.174,0.104,0.368,0.157,0.583c0.056,0.221,0.109,0.445,0.161,0.678
			c0.056,0.231,0.106,0.454,0.15,0.662c0.045,0.21,0.083,0.393,0.114,0.547c0.031,0.155,0.052,0.268,0.052,0.333
			c-1.289,0.577-2.58,1.146-3.873,1.711c0.007-0.069-0.004-0.246-0.034-0.526c-0.03-0.284-0.072-0.605-0.13-0.981
			c-0.061-0.373-0.131-0.751-0.22-1.138c-0.088-0.386-0.191-0.713-0.308-0.979c-1.123-2.565-2.246-5.131-3.369-7.695
			c-0.181-0.412-0.467-0.738-0.854-0.982c-0.393-0.242-0.823-0.411-1.292-0.5c-0.472-0.088-0.954-0.109-1.446-0.062
			C463.088,758.892,462.644,759.001,462.25,759.169z M461.98,763.318c-0.143-0.34-0.318-0.603-0.522-0.791
			c-0.203-0.184-0.387-0.241-0.548-0.174c-0.163,0.069-0.255,0.242-0.277,0.521c-0.02,0.281,0.042,0.593,0.184,0.933
			c0.15,0.359,0.332,0.629,0.546,0.812c0.215,0.179,0.404,0.237,0.568,0.168c0.162-0.067,0.25-0.242,0.261-0.516
			C462.201,763.993,462.132,763.678,461.98,763.318z"/>
		<path fill="#FFFFFF" d="M492.464,755.404c0.503,0.986,0.667,1.953,0.49,2.905c-0.177,0.942-0.585,1.842-1.222,2.683
			c-0.639,0.849-1.446,1.623-2.426,2.33c-0.977,0.708-2.008,1.324-3.09,1.845c-0.516,0.248-1.097,0.479-1.741,0.691
			c-0.646,0.213-1.313,0.384-2.003,0.513c-0.689,0.132-1.378,0.201-2.063,0.214c-0.684,0.012-1.32-0.048-1.916-0.184
			c-0.593-0.133-1.122-0.362-1.584-0.676c-0.46-0.315-0.813-0.741-1.057-1.277c-0.194-0.428-0.269-0.862-0.225-1.306
			c0.045-0.445,0.192-0.87,0.441-1.28c0.251-0.412,0.593-0.798,1.024-1.159c0.433-0.361,0.943-0.675,1.534-0.952
			c1.098-0.503,2.059-0.664,2.88-0.483c0.819,0.186,1.412,0.645,1.765,1.382c0.315,0.657,0.341,1.313,0.072,1.967
			c-0.267,0.652-0.85,1.251-1.748,1.795c0.098-0.046,0.194-0.092,0.292-0.138c0.269,0.007,0.559-0.017,0.873-0.07
			c0.313-0.055,0.626-0.125,0.936-0.215c0.312-0.084,0.601-0.179,0.87-0.281c0.266-0.1,0.492-0.197,0.677-0.285
			c0.616-0.297,1.218-0.646,1.813-1.059c0.589-0.406,1.085-0.876,1.478-1.404c0.392-0.528,0.637-1.115,0.735-1.766
			c0.095-0.648-0.052-1.361-0.438-2.138c-0.707-1.42-1.414-2.84-2.121-4.259c-0.372-0.749-0.843-1.302-1.399-1.656
			c-0.565-0.358-1.173-0.573-1.824-0.645c-0.655-0.075-1.32-0.029-2.005,0.135c-0.683,0.159-1.327,0.385-1.933,0.676
			c-0.248,0.12-0.523,0.271-0.821,0.449c-0.299,0.182-0.593,0.393-0.884,0.63c-0.288,0.239-0.563,0.498-0.819,0.779
			c-0.26,0.283-0.466,0.579-0.617,0.894c-0.15,0.316-0.241,0.642-0.274,0.98c-0.03,0.341,0.039,0.686,0.203,1.037
			c-1.182,0.552-2.365,1.098-3.551,1.638c-0.252-0.554-0.354-1.106-0.31-1.656c0.049-0.543,0.203-1.081,0.467-1.603
			c0.263-0.519,0.613-1.024,1.046-1.515c0.434-0.489,0.912-0.944,1.437-1.366c0.522-0.422,1.073-0.812,1.646-1.166
			c0.574-0.355,1.13-0.664,1.674-0.926c0.724-0.349,1.457-0.645,2.205-0.893c0.747-0.25,1.486-0.433,2.221-0.552
			c0.734-0.118,1.446-0.16,2.137-0.126c0.689,0.035,1.338,0.16,1.946,0.382c0.606,0.217,1.157,0.537,1.653,0.964
			c0.501,0.425,0.919,0.97,1.258,1.636C490.932,752.397,491.698,753.9,492.464,755.404z M480.255,762.03
			c-0.156-0.333-0.343-0.587-0.556-0.764c-0.212-0.174-0.401-0.227-0.564-0.149c-0.173,0.08-0.261,0.263-0.269,0.539
			c-0.006,0.279,0.068,0.586,0.224,0.919c0.166,0.356,0.355,0.615,0.574,0.79c0.217,0.173,0.413,0.219,0.586,0.137
			c0.164-0.076,0.249-0.253,0.25-0.527C480.501,762.697,480.422,762.387,480.255,762.03z"/>
	</g>
</g>
<rect x="255.745" y="442.551" fill="#FFF200" stroke="#000000" stroke-width="0.5" width="88.516" height="13.295"/>
<path fill="#FBE800" stroke="#000000" stroke-width="0.5" d="M255.364,451.688c0,0-5.545,8.194-19.486,27.303v14.955h127.943
	c0,0,0.384-12.535-0.674-15.008c-2.97-6.958-9.316-14.891-18.057-27.25H255.364z"/>
<g>
	<path fill="#262262" d="M239.259,567.011c0.435,0.963,0.802,1.985,1.099,3.077c0.297,1.079,0.528,2.177,0.69,3.273
		c0.167,1.099,0.267,2.164,0.304,3.194c0.035,1.037,0.033,1.969-0.014,2.789l-1.891,34.359c-0.128,2.319,0.201,4.167,0.991,5.545
		c0.788,1.373,1.827,2.436,3.119,3.187c1.291,0.738,2.739,1.242,4.335,1.501c1.6,0.258,3.151,0.424,4.646,0.509
		c1.423,0.078,2.886-0.067,4.39-0.435c1.501-0.365,2.868-0.985,4.098-1.859c1.23-0.864,2.259-2.011,3.091-3.43
		c0.826-1.42,1.299-3.158,1.412-5.215l1.871-33.964c0.056-1.048,0.012-2.116-0.135-3.189c-0.147-1.079-0.355-2.103-0.618-3.076
		c-0.267-0.971-0.564-1.873-0.895-2.693c-0.33-0.825-0.648-1.548-0.952-2.168l13.417,0.737c0.624,0.938,1.106,1.918,1.443,2.952
		c0.338,1.033,0.581,2.061,0.732,3.083c0.151,1.021,0.228,2.012,0.231,2.964c0.001,0.959-0.018,1.816-0.06,2.563l-1.946,35.368
		c-0.103,1.872-0.561,3.582-1.379,5.134c-0.818,1.546-1.878,2.927-3.184,4.13c-1.304,1.208-2.808,2.249-4.506,3.135
		c-1.702,0.877-3.495,1.589-5.382,2.124c-1.887,0.53-3.816,0.913-5.78,1.146c-1.963,0.227-3.864,0.294-5.698,0.191
		c-1.459-0.079-2.993-0.191-4.597-0.337c-1.608-0.145-3.219-0.364-4.836-0.662c-1.618-0.298-3.171-0.68-4.667-1.157
		c-1.492-0.474-2.861-1.087-4.092-1.83c-0.743,0.484-1.59,0.881-2.545,1.186c-0.955,0.301-1.936,0.539-2.938,0.708
		c-1.006,0.17-2.015,0.284-3.033,0.34c-1.014,0.057-1.938,0.063-2.761,0.019c-2.208-0.121-4.12-0.489-5.74-1.105
		c-1.617-0.615-2.96-1.409-4.032-2.39c-1.075-0.978-1.857-2.121-2.345-3.42c-0.495-1.306-0.699-2.687-0.62-4.149
		c0.074-1.346,0.456-2.631,1.142-3.849c0.687-1.225,1.627-2.286,2.821-3.196c1.196-0.906,2.632-1.61,4.312-2.1
		c1.678-0.488,3.547-0.677,5.606-0.563c0.299,0.018,0.623,0.045,0.98,0.085c0.354,0.035,0.717,0.085,1.089,0.146l1.72-31.272
		c0.051-0.938,0.035-1.982-0.052-3.134c-0.085-1.144-0.238-2.283-0.459-3.402c-0.221-1.117-0.493-2.162-0.812-3.14
		c-0.322-0.974-0.673-1.791-1.048-2.454L239.259,567.011z"/>
</g>
<g>
	<path fill="#262262" d="M384.475,582.001c0.1,2.51-0.458,4.817-1.674,6.917c-1.215,2.104-2.865,4.044-4.957,5.811
		c-2.089,1.777-4.511,3.401-7.258,4.882c-2.754,1.473-5.596,2.839-8.528,4.097c-1.592,0.689-3.187,1.342-4.797,1.961
		c-1.608,0.608-3.172,1.204-4.694,1.776c-2.005,0.78-3.89,1.53-5.651,2.238c-1.762,0.711-3.305,1.458-4.627,2.229
		c-1.322,0.773-2.35,1.59-3.089,2.437c-0.741,0.85-1.088,1.78-1.051,2.79c0.054,1.31,0.438,2.312,1.15,3.002
		c0.714,0.687,1.529,1.183,2.452,1.494c0.928,0.305,1.864,0.484,2.814,0.527c0.953,0.047,1.689,0.054,2.215,0.036
		c1.612-0.05,3.2-0.524,4.762-1.417c1.563-0.892,3.111-1.873,4.65-2.935c0.753-0.511,1.521-1.013,2.31-1.512
		c0.788-0.488,1.65-0.928,2.582-1.316c0.932-0.391,1.954-0.713,3.067-0.974c1.113-0.267,2.373-0.415,3.774-0.461
		c1.02-0.035,2.173-0.008,3.458,0.085c1.285,0.089,2.586,0.272,3.915,0.545c1.33,0.277,2.619,0.663,3.865,1.144
		c1.248,0.484,2.373,1.105,3.365,1.863c0.994,0.75,1.803,1.653,2.426,2.696c0.621,1.052,0.96,2.27,1.016,3.654
		c0.002,0.074,0.007,0.19,0.012,0.34c0.007,0.152-0.021,0.393-0.077,0.733l0.054-0.004c-0.021,0.375-0.049,0.747-0.088,1.101
		c-0.037,0.361-0.067,0.705-0.091,1.048c-0.126,1.314-0.214,2.56-0.274,3.746c-0.054,1.183-0.063,2.315-0.019,3.402
		c0.079,2.021,0.31,3.845,0.688,5.459c0.383,1.618,1.018,3.037,1.907,4.241l-9.172,5.076c-2.029-2.409-3.458-4.807-4.288-7.197
		c-0.834-2.389-1.297-4.732-1.39-7.014c-0.051-1.387-0.044-2.862,0.037-4.445c0.077-1.575,0.207-3.169,0.388-4.794l-0.053,0.003
		c-0.003-0.074,0.002-0.148,0.019-0.227c0.012-0.077,0.021-0.146,0.019-0.223c-0.049-1.235-0.563-2.185-1.539-2.85
		c-0.971-0.658-2.354-0.963-4.144-0.906c-0.63,0.024-1.434,0.35-2.407,0.979c-0.98,0.635-2.062,1.399-3.254,2.299
		c-0.787,0.595-1.634,1.175-2.54,1.766c-0.906,0.599-1.926,1.147-3.064,1.653c-1.14,0.507-2.45,0.928-3.928,1.278
		c-1.479,0.344-3.184,0.556-5.11,0.619c-1.265,0.04-2.678,0.029-4.241-0.034c-1.566-0.061-3.142-0.216-4.734-0.464
		c-1.589-0.249-3.142-0.645-4.654-1.172c-1.513-0.531-2.865-1.246-4.063-2.146c-1.192-0.903-2.17-2.019-2.926-3.367
		c-0.753-1.339-1.169-2.949-1.245-4.822c-0.086-2.135,0.585-4.057,2.01-5.771c1.425-1.717,3.318-3.289,5.687-4.715
		c2.363-1.427,5.066-2.759,8.108-4.005c3.044-1.239,6.151-2.475,9.335-3.706c1.211-0.446,2.396-0.906,3.554-1.382
		c1.155-0.464,2.324-0.941,3.497-1.431c2.006-0.816,3.877-1.685,5.61-2.598c1.736-0.924,3.251-1.954,4.536-3.102
		c1.295-1.146,2.296-2.432,3.012-3.842c0.716-1.409,1.039-3.013,0.97-4.814c-0.063-1.533-0.414-2.856-1.058-3.982
		c-0.642-1.119-1.46-2.093-2.454-2.9c-1.002-0.81-2.127-1.458-3.372-1.946c-1.25-0.482-2.513-0.864-3.786-1.141
		c-1.275-0.279-2.512-0.464-3.706-0.556c-1.202-0.096-2.238-0.128-3.117-0.096c-0.804,0.025-1.749,0.085-2.835,0.177
		c-1.085,0.089-2.245,0.248-3.483,0.479c-1.236,0.229-2.523,0.53-3.86,0.913c-1.336,0.379-2.658,0.891-3.969,1.532l-0.684,0.024
		c1.585,0.135,3.012,0.489,4.281,1.069c1.271,0.577,2.358,1.292,3.271,2.146c0.913,0.846,1.627,1.813,2.146,2.881
		c0.516,1.073,0.797,2.185,0.844,3.342c0.127,3.261-0.881,5.856-3.038,7.778c-2.151,1.931-5.684,2.97-10.592,3.126
		c-1.441,0.05-2.868-0.141-4.293-0.587c-1.42-0.442-2.705-1.137-3.849-2.096c-1.143-0.957-2.096-2.164-2.858-3.619
		c-0.76-1.458-1.178-3.196-1.26-5.218c-0.076-1.947,0.272-3.771,1.049-5.463s1.873-3.236,3.293-4.635
		c1.418-1.395,3.107-2.658,5.062-3.792c1.957-1.133,4.083-2.093,6.365-2.878c2.287-0.785,4.666-1.409,7.144-1.866
		c2.476-0.449,4.955-0.718,7.446-0.799c2.033-0.071,4.169-0.022,6.407,0.131c2.23,0.147,4.429,0.464,6.593,0.935
		c2.161,0.478,4.223,1.126,6.188,1.965c1.964,0.835,3.709,1.932,5.238,3.288c1.531,1.356,2.761,2.975,3.697,4.861
		C383.854,577.243,384.374,579.459,384.475,582.001z"/>
</g>
<polygon fill="#FFF200" stroke="#000000" stroke-width="0.5" points="327.794,418.668 272.508,418.668 275.229,410.248 
	323.415,410.248 "/>
<polygon fill="#FFF200" stroke="#000000" stroke-width="0.5" points="338.746,435.227 261.332,435.227 269.352,419.518 
	329.937,419.518 "/>
<path fill="#FBE800" stroke="#000000" stroke-width="0.5" d="M265.033,416.498h68.882c0,0,6.042-1.055,6.646-5.438
	c0,0,2.719,11.028-6.345,15.407h-68.278c0,0-9.308-3.686-6.589-15.167C259.35,411.3,262.067,415.889,265.033,416.498z"/>
<path fill="#FBE800" stroke="#000000" stroke-width="0.5" d="M252.367,431.952h94.354c0,0,8.28-1.446,9.107-7.45
	c0,0,3.724,15.107-8.691,21.107h-93.529c0,0-12.752-5.048-9.027-20.778C244.581,424.831,248.304,431.115,252.367,431.952z"/>
<polygon fill="#FBE800" stroke="#000000" stroke-width="0.5" points="261.666,349.727 337.722,349.727 327.375,405.013 
	271.862,405.013 "/>
<path fill="#FFF200" stroke="#000000" stroke-width="0.5" d="M286.256,467.617c-2.774-3.421-3.514-5.339-3.514-5.339
	s-0.948,2.294-4.132,5.302c-2.008,1.896-9.609,6.313-11.145,7.539c-7.181,5.732,0.25,18.725,0.25,18.725l29.103-0.05
	c0,0,7.285-12.96,0.718-18.69C294.543,472.493,288.48,470.355,286.256,467.617z"/>
<path fill="#FFF200" stroke="#000000" stroke-width="0.5" d="M321.557,467.617c-2.777-3.421-3.517-5.339-3.517-5.339
	s-0.948,2.294-4.132,5.302c-2.008,1.896-9.607,6.313-11.144,7.539c-7.18,5.732,0.249,18.725,0.249,18.725l29.104-0.05
	c0,0,7.286-12.96,0.718-18.69C329.843,472.493,323.777,470.355,321.557,467.617z"/>
<path fill="#FFF200" stroke="#000000" stroke-width="0.5" d="M348.479,493.856c0,0,5.287-18.108,6.291-20.601
	c1.009-2.492,4.736-6.079,11.16-6.759c0,0-4.932,2.889-4.042,6.759c0.98,4.263,8.455,8.44,3.983,20.657L348.479,493.856z"/>
<path fill="#FFF200" stroke="#000000" stroke-width="0.5" d="M249.08,493.931c0,0-5.287-18.107-6.292-20.601
	c-1.007-2.492-4.736-6.079-11.158-6.759c0,0,4.931,2.889,4.04,6.759c-0.979,4.263-8.453,8.441-3.982,20.658L249.08,493.931z"/>
<path fill="#FFF200" stroke="#000000" stroke-width="0.5" d="M299.373,176.475c0,0-0.378,7.14-3.596,14.774
	c-4.189,9.94,0.892,20.599,3.744,20.599c3.357,0,7.07-11.496,4.041-20.5C301.975,186.639,301.43,187.854,299.373,176.475z"/>
<path fill="#FFF200" stroke="#000000" stroke-width="0.5" d="M303.511,467.617c-2.776-3.421-3.516-5.339-3.516-5.339
	s-0.948,2.294-4.132,5.302c-2.008,1.896-9.609,6.313-11.143,7.539c-7.181,5.732,0.249,18.725,0.249,18.725l29.102-0.05
	c0,0,7.286-12.96,0.719-18.69C311.798,472.493,305.732,470.355,303.511,467.617z"/>
<path fill="#FFF200" stroke="#000000" stroke-width="0.5" d="M339.839,467.617c-2.777-3.421-3.517-5.339-3.517-5.339
	s-0.948,2.294-4.132,5.302c-2.008,1.896-9.609,6.313-11.144,7.539c-7.181,5.732,0.249,18.725,0.249,18.725l29.103-0.05
	c0,0,7.285-12.96,0.718-18.69C348.126,472.493,342.061,470.355,339.839,467.617z"/>
<path fill="#FFF200" stroke="#000000" stroke-width="0.5" d="M267.318,467.667c-2.775-3.421-3.514-5.339-3.514-5.339
	s-0.948,2.295-4.132,5.302c-2.008,1.896-9.61,6.313-11.145,7.539c-7.181,5.733,0.25,18.725,0.25,18.725l29.103-0.05
	c0,0,7.285-12.959,0.718-18.69C275.605,472.543,269.542,470.406,267.318,467.667z"/>
</svg>
